solid OpenSCAD_Model
  facet normal -0 0 1
    outer loop
      vertex 0 80 80.9
      vertex 350 0 80.9
      vertex 350 80 80.9
    endloop
  endfacet
  facet normal 0 0 1
    outer loop
      vertex 350 0 80.9
      vertex 0 80 80.9
      vertex 0 0 80.9
    endloop
  endfacet
  facet normal -0 0 1
    outer loop
      vertex 350 75.2 80
      vertex 350.2 4.8 80
      vertex 350.2 75.2 80
    endloop
  endfacet
  facet normal 0 0 1
    outer loop
      vertex 350.2 4.8 80
      vertex 350 75.2 80
      vertex 350 4.8 80
    endloop
  endfacet
  facet normal 0 0 -1
    outer loop
      vertex 265.1 4.8 80
      vertex 340.4 75.2 80
      vertex 340.4 4.8 80
    endloop
  endfacet
  facet normal -0 0 -1
    outer loop
      vertex 340.4 75.2 80
      vertex 265.1 4.8 80
      vertex 265.1 75.2 80
    endloop
  endfacet
  facet normal 0 0 -1
    outer loop
      vertex 180 4.8 80
      vertex 255.3 75.2 80
      vertex 255.3 4.8 80
    endloop
  endfacet
  facet normal -0 0 -1
    outer loop
      vertex 255.3 75.2 80
      vertex 180 4.8 80
      vertex 180 75.2 80
    endloop
  endfacet
  facet normal 0 0 -1
    outer loop
      vertex 94.9 4.8 80
      vertex 170.2 75.2 80
      vertex 170.2 4.8 80
    endloop
  endfacet
  facet normal -0 0 -1
    outer loop
      vertex 170.2 75.2 80
      vertex 94.9 4.8 80
      vertex 94.9 75.2 80
    endloop
  endfacet
  facet normal 0 0 -1
    outer loop
      vertex 9.8 4.8 80
      vertex 85.1 75.2 80
      vertex 85.1 4.8 80
    endloop
  endfacet
  facet normal -0 0 -1
    outer loop
      vertex 85.1 75.2 80
      vertex 9.8 4.8 80
      vertex 9.8 75.2 80
    endloop
  endfacet
  facet normal -1 0 0
    outer loop
      vertex 0 4.8 70.4
      vertex 0 0 70.4
      vertex 0 4.8 75.2
    endloop
  endfacet
  facet normal -1 0 0
    outer loop
      vertex 0 75.2 75.2
      vertex 0 80 70.4
      vertex 0 75.2 70.4
    endloop
  endfacet
  facet normal -1 0 0
    outer loop
      vertex 0 80 70.4
      vertex 0 75.2 75.2
      vertex 0 80 80.9
    endloop
  endfacet
  facet normal -1 0 0
    outer loop
      vertex 0 4.8 75.2
      vertex 0 80 80.9
      vertex 0 75.2 75.2
    endloop
  endfacet
  facet normal -1 0 0
    outer loop
      vertex 0 4.8 75.2
      vertex 0 0 80.9
      vertex 0 80 80.9
    endloop
  endfacet
  facet normal -1 0 0
    outer loop
      vertex 0 0 80.9
      vertex 0 4.8 75.2
      vertex 0 0 70.4
    endloop
  endfacet
  facet normal 0 1 -0
    outer loop
      vertex 350 80 70.4
      vertex 0 80 80.9
      vertex 350 80 80.9
    endloop
  endfacet
  facet normal 0 1 0
    outer loop
      vertex 0 80 80.9
      vertex 350 80 70.4
      vertex 0 80 70.4
    endloop
  endfacet
  facet normal 0 -1 0
    outer loop
      vertex 0 0 70.4
      vertex 350 0 80.9
      vertex 0 0 80.9
    endloop
  endfacet
  facet normal 0 -1 -0
    outer loop
      vertex 350 0 80.9
      vertex 0 0 70.4
      vertex 350 0 70.4
    endloop
  endfacet
  facet normal 1 0 0
    outer loop
      vertex 350 75.2 75.2
      vertex 350 80 80.9
      vertex 350 75.2 80
    endloop
  endfacet
  facet normal 1 0 0
    outer loop
      vertex 350 80 80.9
      vertex 350 4.8 80
      vertex 350 75.2 80
    endloop
  endfacet
  facet normal 1 0 0
    outer loop
      vertex 350 0 80.9
      vertex 350 4.8 75.2
      vertex 350 4.8 80
    endloop
  endfacet
  facet normal 1 -0 0
    outer loop
      vertex 350 0 80.9
      vertex 350 4.8 80
      vertex 350 80 80.9
    endloop
  endfacet
  facet normal 1 0 0
    outer loop
      vertex 350 4.8 75.2
      vertex 350 0 80.9
      vertex 350 0 70.4
    endloop
  endfacet
  facet normal 1 0 0
    outer loop
      vertex 350 4.8 75.2
      vertex 350 0 70.4
      vertex 350 4.8 70.4
    endloop
  endfacet
  facet normal 1 0 0
    outer loop
      vertex 350 80 80.9
      vertex 350 75.2 75.2
      vertex 350 80 70.4
    endloop
  endfacet
  facet normal 1 0 0
    outer loop
      vertex 350 80 70.4
      vertex 350 75.2 75.2
      vertex 350 75.2 70.4
    endloop
  endfacet
  facet normal 0 0 -1
    outer loop
      vertex 0 75.2 70.4
      vertex 350 80 70.4
      vertex 350 75.2 70.4
    endloop
  endfacet
  facet normal -0 0 -1
    outer loop
      vertex 350 80 70.4
      vertex 0 75.2 70.4
      vertex 0 80 70.4
    endloop
  endfacet
  facet normal 0 1 -0
    outer loop
      vertex 350.2 75.2 75.2
      vertex 350 75.2 80
      vertex 350.2 75.2 80
    endloop
  endfacet
  facet normal 0 1 0
    outer loop
      vertex 350 75.2 80
      vertex 350.2 75.2 75.2
      vertex 350 75.2 75.2
    endloop
  endfacet
  facet normal 0 -1 0
    outer loop
      vertex 0 75.2 70.4
      vertex 9.8 75.2 75.2
      vertex 0 75.2 75.2
    endloop
  endfacet
  facet normal 0 -1 -0
    outer loop
      vertex 9.8 75.2 75.2
      vertex 0 75.2 70.4
      vertex 85.1 75.2 75.2
    endloop
  endfacet
  facet normal 0 -1 -0
    outer loop
      vertex 85.1 75.2 75.2
      vertex 0 75.2 70.4
      vertex 94.9 75.2 75.2
    endloop
  endfacet
  facet normal 0 -1 -0
    outer loop
      vertex 94.9 75.2 75.2
      vertex 0 75.2 70.4
      vertex 170.2 75.2 75.2
    endloop
  endfacet
  facet normal 0 -1 -0
    outer loop
      vertex 170.2 75.2 75.2
      vertex 0 75.2 70.4
      vertex 180 75.2 75.2
    endloop
  endfacet
  facet normal 0 -1 0
    outer loop
      vertex 350 75.2 70.4
      vertex 180 75.2 75.2
      vertex 0 75.2 70.4
    endloop
  endfacet
  facet normal 0 -1 0
    outer loop
      vertex 180 75.2 75.2
      vertex 350 75.2 70.4
      vertex 255.3 75.2 75.2
    endloop
  endfacet
  facet normal 0 -1 0
    outer loop
      vertex 255.3 75.2 75.2
      vertex 350 75.2 70.4
      vertex 265.1 75.2 75.2
    endloop
  endfacet
  facet normal 0 -1 0
    outer loop
      vertex 265.1 75.2 75.2
      vertex 350 75.2 70.4
      vertex 340.4 75.2 75.2
    endloop
  endfacet
  facet normal 0 -1 0
    outer loop
      vertex 340.4 75.2 75.2
      vertex 350 75.2 70.4
      vertex 350 75.2 75.2
    endloop
  endfacet
  facet normal 0 -1 0
    outer loop
      vertex 9.8 75.2 75.2
      vertex 85.1 75.2 80
      vertex 9.8 75.2 80
    endloop
  endfacet
  facet normal 0 -1 -0
    outer loop
      vertex 85.1 75.2 80
      vertex 9.8 75.2 75.2
      vertex 85.1 75.2 75.2
    endloop
  endfacet
  facet normal 0 -1 0
    outer loop
      vertex 94.9 75.2 75.2
      vertex 170.2 75.2 80
      vertex 94.9 75.2 80
    endloop
  endfacet
  facet normal 0 -1 -0
    outer loop
      vertex 170.2 75.2 80
      vertex 94.9 75.2 75.2
      vertex 170.2 75.2 75.2
    endloop
  endfacet
  facet normal 0 -1 0
    outer loop
      vertex 180 75.2 75.2
      vertex 255.3 75.2 80
      vertex 180 75.2 80
    endloop
  endfacet
  facet normal 0 -1 -0
    outer loop
      vertex 255.3 75.2 80
      vertex 180 75.2 75.2
      vertex 255.3 75.2 75.2
    endloop
  endfacet
  facet normal 0 -1 0
    outer loop
      vertex 265.1 75.2 75.2
      vertex 340.4 75.2 80
      vertex 265.1 75.2 80
    endloop
  endfacet
  facet normal 0 -1 -0
    outer loop
      vertex 340.4 75.2 80
      vertex 265.1 75.2 75.2
      vertex 340.4 75.2 75.2
    endloop
  endfacet
  facet normal 0 0 -1
    outer loop
      vertex 350 0 70.4
      vertex 347.6 3.8147e-07 70.4
      vertex 350 4.8 70.4
    endloop
  endfacet
  facet normal 0 0 -1
    outer loop
      vertex 350 0 70.4
      vertex 342.8 3.8147e-07 70.4
      vertex 347.6 3.8147e-07 70.4
    endloop
  endfacet
  facet normal 0 0 -1
    outer loop
      vertex 342.8 3.8147e-07 70.4
      vertex 262.5 3.8147e-07 70.4
      vertex 342.8 4.8 70.4
    endloop
  endfacet
  facet normal 0 0 -1
    outer loop
      vertex 350 0 70.4
      vertex 262.5 3.8147e-07 70.4
      vertex 342.8 3.8147e-07 70.4
    endloop
  endfacet
  facet normal 0 0 -1
    outer loop
      vertex 350 0 70.4
      vertex 257.7 3.8147e-07 70.4
      vertex 262.5 3.8147e-07 70.4
    endloop
  endfacet
  facet normal 0 0 -1
    outer loop
      vertex 257.7 3.8147e-07 70.4
      vertex 177.4 3.8147e-07 70.4
      vertex 257.7 4.8 70.4
    endloop
  endfacet
  facet normal 0 0 -1
    outer loop
      vertex 350 0 70.4
      vertex 177.4 3.8147e-07 70.4
      vertex 257.7 3.8147e-07 70.4
    endloop
  endfacet
  facet normal 0 0 -1
    outer loop
      vertex 350 0 70.4
      vertex 172.6 3.8147e-07 70.4
      vertex 177.4 3.8147e-07 70.4
    endloop
  endfacet
  facet normal 0 0 -1
    outer loop
      vertex 172.6 3.8147e-07 70.4
      vertex 92.3 3.8147e-07 70.4
      vertex 172.6 4.8 70.4
    endloop
  endfacet
  facet normal 0 0 -1
    outer loop
      vertex 350 0 70.4
      vertex 92.3 3.8147e-07 70.4
      vertex 172.6 3.8147e-07 70.4
    endloop
  endfacet
  facet normal 0 0 -1
    outer loop
      vertex 350 0 70.4
      vertex 87.5 3.8147e-07 70.4
      vertex 92.3 3.8147e-07 70.4
    endloop
  endfacet
  facet normal 0 0 -1
    outer loop
      vertex 87.5 3.8147e-07 70.4
      vertex 7.2 3.8147e-07 70.4
      vertex 87.5 4.8 70.4
    endloop
  endfacet
  facet normal 0 0 -1
    outer loop
      vertex 350 0 70.4
      vertex 7.2 3.8147e-07 70.4
      vertex 87.5 3.8147e-07 70.4
    endloop
  endfacet
  facet normal 0 0 -1
    outer loop
      vertex 350 0 70.4
      vertex 2.4 3.8147e-07 70.4
      vertex 7.2 3.8147e-07 70.4
    endloop
  endfacet
  facet normal 0 0 -1
    outer loop
      vertex 0 0 70.4
      vertex 2.4 3.8147e-07 70.4
      vertex 350 0 70.4
    endloop
  endfacet
  facet normal 0 0 -1
    outer loop
      vertex 0 0 70.4
      vertex 2.4 4.8 70.4
      vertex 2.4 3.8147e-07 70.4
    endloop
  endfacet
  facet normal -0 0 -1
    outer loop
      vertex 2.4 4.8 70.4
      vertex 0 0 70.4
      vertex 0 4.8 70.4
    endloop
  endfacet
  facet normal -0 0 -1
    outer loop
      vertex 350 4.8 70.4
      vertex 347.6 3.8147e-07 70.4
      vertex 347.6 4.8 70.4
    endloop
  endfacet
  facet normal -0 0 -1
    outer loop
      vertex 342.8 4.8 70.4
      vertex 262.5 3.8147e-07 70.4
      vertex 262.5 4.8 70.4
    endloop
  endfacet
  facet normal -0 0 -1
    outer loop
      vertex 257.7 4.8 70.4
      vertex 177.4 3.8147e-07 70.4
      vertex 177.4 4.8 70.4
    endloop
  endfacet
  facet normal -0 0 -1
    outer loop
      vertex 172.6 4.8 70.4
      vertex 92.3 3.8147e-07 70.4
      vertex 92.3 4.8 70.4
    endloop
  endfacet
  facet normal -0 0 -1
    outer loop
      vertex 87.5 4.8 70.4
      vertex 7.2 3.8147e-07 70.4
      vertex 7.2 4.8 70.4
    endloop
  endfacet
  facet normal 0 -1 0
    outer loop
      vertex 350 4.8 75.2
      vertex 350.2 4.8 80
      vertex 350 4.8 80
    endloop
  endfacet
  facet normal 0 -1 -0
    outer loop
      vertex 350.2 4.8 80
      vertex 350 4.8 75.2
      vertex 350.2 4.8 75.2
    endloop
  endfacet
  facet normal 0 1 0
    outer loop
      vertex 7.2 4.8 70.4
      vertex 9.8 4.8 75.2
      vertex 87.5 4.8 70.4
    endloop
  endfacet
  facet normal 0 1 0
    outer loop
      vertex 9.8 4.8 75.2
      vertex 7.2 4.8 70.4
      vertex 7.2 4.8 72.3882
    endloop
  endfacet
  facet normal 0 1 0
    outer loop
      vertex 92.3 4.8 70.4
      vertex 94.9 4.8 75.2
      vertex 172.6 4.8 70.4
    endloop
  endfacet
  facet normal 0 1 0
    outer loop
      vertex 94.9 4.8 75.2
      vertex 92.3 4.8 70.4
      vertex 92.3 4.8 72.3882
    endloop
  endfacet
  facet normal 0 1 0
    outer loop
      vertex 177.4 4.8 70.4
      vertex 180 4.8 75.2
      vertex 257.7 4.8 70.4
    endloop
  endfacet
  facet normal 0 1 0
    outer loop
      vertex 180 4.8 75.2
      vertex 177.4 4.8 70.4
      vertex 177.4 4.8 72.3882
    endloop
  endfacet
  facet normal 0 1 0
    outer loop
      vertex 262.5 4.8 70.4
      vertex 265.1 4.8 75.2
      vertex 342.8 4.8 70.4
    endloop
  endfacet
  facet normal 0 1 0
    outer loop
      vertex 265.1 4.8 75.2
      vertex 262.5 4.8 70.4
      vertex 262.5 4.8 72.3882
    endloop
  endfacet
  facet normal 0 1 -0
    outer loop
      vertex 342.8 4.8 72.3882
      vertex 340.4 4.8 75.2
      vertex 350 4.8 75.2
    endloop
  endfacet
  facet normal 0 1 -0
    outer loop
      vertex 342.8 4.8 70.4
      vertex 340.4 4.8 75.2
      vertex 342.8 4.8 72.3882
    endloop
  endfacet
  facet normal 0 1 0
    outer loop
      vertex 265.1 4.8 75.2
      vertex 262.5 4.8 72.3882
      vertex 255.3 4.8 75.2
    endloop
  endfacet
  facet normal 0 1 -0
    outer loop
      vertex 257.7 4.8 70.4
      vertex 255.3 4.8 75.2
      vertex 257.7 4.8 72.3882
    endloop
  endfacet
  facet normal 0 1 0
    outer loop
      vertex 255.3 4.8 75.2
      vertex 257.7 4.8 70.4
      vertex 180 4.8 75.2
    endloop
  endfacet
  facet normal 0 1 -0
    outer loop
      vertex 172.6 4.8 72.3882
      vertex 170.2 4.8 75.2
      vertex 177.4 4.8 72.3882
    endloop
  endfacet
  facet normal 0 1 -0
    outer loop
      vertex 172.6 4.8 70.4
      vertex 170.2 4.8 75.2
      vertex 172.6 4.8 72.3882
    endloop
  endfacet
  facet normal 0 1 0
    outer loop
      vertex 170.2 4.8 75.2
      vertex 172.6 4.8 70.4
      vertex 94.9 4.8 75.2
    endloop
  endfacet
  facet normal 0 1 0
    outer loop
      vertex 342.8 4.8 72.3882
      vertex 350 4.8 75.2
      vertex 347.6 4.8 72.3882
    endloop
  endfacet
  facet normal 0 1 -0
    outer loop
      vertex 350 4.8 70.4
      vertex 347.6 4.8 72.3882
      vertex 350 4.8 75.2
    endloop
  endfacet
  facet normal 0 1 0
    outer loop
      vertex 347.6 4.8 72.3882
      vertex 350 4.8 70.4
      vertex 347.6 4.8 70.4
    endloop
  endfacet
  facet normal 0 1 -0
    outer loop
      vertex 340.4 4.8 75.2
      vertex 265.1 4.8 80
      vertex 340.4 4.8 80
    endloop
  endfacet
  facet normal 0 1 0
    outer loop
      vertex 265.1 4.8 80
      vertex 340.4 4.8 75.2
      vertex 265.1 4.8 75.2
    endloop
  endfacet
  facet normal 0 1 -0
    outer loop
      vertex 255.3 4.8 75.2
      vertex 180 4.8 80
      vertex 255.3 4.8 80
    endloop
  endfacet
  facet normal 0 1 0
    outer loop
      vertex 180 4.8 80
      vertex 255.3 4.8 75.2
      vertex 180 4.8 75.2
    endloop
  endfacet
  facet normal 0 1 -0
    outer loop
      vertex 170.2 4.8 75.2
      vertex 94.9 4.8 80
      vertex 170.2 4.8 80
    endloop
  endfacet
  facet normal 0 1 0
    outer loop
      vertex 94.9 4.8 80
      vertex 170.2 4.8 75.2
      vertex 94.9 4.8 75.2
    endloop
  endfacet
  facet normal 0 1 -0
    outer loop
      vertex 85.1 4.8 75.2
      vertex 9.8 4.8 80
      vertex 85.1 4.8 80
    endloop
  endfacet
  facet normal 0 1 0
    outer loop
      vertex 9.8 4.8 80
      vertex 85.1 4.8 75.2
      vertex 9.8 4.8 75.2
    endloop
  endfacet
  facet normal 0 1 0
    outer loop
      vertex 340.4 4.8 75.2
      vertex 342.8 4.8 70.4
      vertex 265.1 4.8 75.2
    endloop
  endfacet
  facet normal 0 1 0
    outer loop
      vertex 255.3 4.8 75.2
      vertex 262.5 4.8 72.3882
      vertex 257.7 4.8 72.3882
    endloop
  endfacet
  facet normal 0 1 0
    outer loop
      vertex 180 4.8 75.2
      vertex 177.4 4.8 72.3882
      vertex 170.2 4.8 75.2
    endloop
  endfacet
  facet normal 0 1 0
    outer loop
      vertex 94.9 4.8 75.2
      vertex 92.3 4.8 72.3882
      vertex 85.1 4.8 75.2
    endloop
  endfacet
  facet normal 0 1 -0
    outer loop
      vertex 87.5 4.8 72.3882
      vertex 85.1 4.8 75.2
      vertex 92.3 4.8 72.3882
    endloop
  endfacet
  facet normal 0 1 -0
    outer loop
      vertex 87.5 4.8 70.4
      vertex 85.1 4.8 75.2
      vertex 87.5 4.8 72.3882
    endloop
  endfacet
  facet normal 0 1 0
    outer loop
      vertex 85.1 4.8 75.2
      vertex 87.5 4.8 70.4
      vertex 9.8 4.8 75.2
    endloop
  endfacet
  facet normal 0 1 0
    outer loop
      vertex 9.8 4.8 75.2
      vertex 7.2 4.8 72.3882
      vertex 0 4.8 75.2
    endloop
  endfacet
  facet normal 0 1 -0
    outer loop
      vertex 2.4 4.8 72.3882
      vertex 0 4.8 75.2
      vertex 7.2 4.8 72.3882
    endloop
  endfacet
  facet normal 0 1 0
    outer loop
      vertex 0 4.8 70.4
      vertex 2.4 4.8 72.3882
      vertex 2.4 4.8 70.4
    endloop
  endfacet
  facet normal 0 1 0
    outer loop
      vertex 2.4 4.8 72.3882
      vertex 0 4.8 70.4
      vertex 0 4.8 75.2
    endloop
  endfacet
  facet normal -0 0 1
    outer loop
      vertex 0 80 70.4
      vertex 9.8 75.2 70.4
      vertex 9.8 80 70.4
    endloop
  endfacet
  facet normal 0 0 1
    outer loop
      vertex 9.8 75.2 70.4
      vertex 0 80 70.4
      vertex 0 75.2 70.4
    endloop
  endfacet
  facet normal 1 -0 0
    outer loop
      vertex 9.8 75.2 35
      vertex 9.8 80 0
      vertex 9.8 80 35
    endloop
  endfacet
  facet normal 1 0 0
    outer loop
      vertex 9.8 80 0
      vertex 9.8 75.2 35
      vertex 9.8 75.2 0
    endloop
  endfacet
  facet normal 1 -0 0
    outer loop
      vertex 9.8 75.2 70.4
      vertex 9.8 80 35.9
      vertex 9.8 80 70.4
    endloop
  endfacet
  facet normal 1 0 0
    outer loop
      vertex 9.8 80 35.9
      vertex 9.8 75.2 70.4
      vertex 9.8 75.2 35.9
    endloop
  endfacet
  facet normal -1 0 0
    outer loop
      vertex 0 30 35
      vertex 0 75.2 35.9
      vertex 0 75.2 35
    endloop
  endfacet
  facet normal -1 -0 0
    outer loop
      vertex 0 75.2 35.9
      vertex 0 30 35
      vertex 0 30 35.9
    endloop
  endfacet
  facet normal -1 0 0
    outer loop
      vertex 0 75.2 35
      vertex 0 80 0
      vertex 0 75.2 0
    endloop
  endfacet
  facet normal -1 0 0
    outer loop
      vertex 0 80 0
      vertex 0 75.2 35
      vertex 0 80 70.4
    endloop
  endfacet
  facet normal -1 0 0
    outer loop
      vertex 0 75.2 35.9
      vertex 0 80 70.4
      vertex 0 75.2 35
    endloop
  endfacet
  facet normal -1 -0 0
    outer loop
      vertex 0 80 70.4
      vertex 0 75.2 35.9
      vertex 0 75.2 70.4
    endloop
  endfacet
  facet normal 0 0 -1
    outer loop
      vertex 0 75.2 0
      vertex 9.8 80 0
      vertex 9.8 75.2 0
    endloop
  endfacet
  facet normal -0 0 -1
    outer loop
      vertex 9.8 80 0
      vertex 0 75.2 0
      vertex 0 80 0
    endloop
  endfacet
  facet normal 0 -1 0
    outer loop
      vertex 0 75.2 0
      vertex 9.8 75.2 35
      vertex 0 75.2 35
    endloop
  endfacet
  facet normal 0 -1 -0
    outer loop
      vertex 9.8 75.2 35
      vertex 0 75.2 0
      vertex 9.8 75.2 0
    endloop
  endfacet
  facet normal 0 -1 0
    outer loop
      vertex 0 75.2 35.9
      vertex 9.8 75.2 70.4
      vertex 0 75.2 70.4
    endloop
  endfacet
  facet normal 0 -1 -0
    outer loop
      vertex 9.8 75.2 70.4
      vertex 0 75.2 35.9
      vertex 9.8 75.2 35.9
    endloop
  endfacet
  facet normal 0 1 -0
    outer loop
      vertex 94.9 80 0
      vertex 85.1 80 35
      vertex 94.9 80 35
    endloop
  endfacet
  facet normal 0 1 0
    outer loop
      vertex 85.1 80 35
      vertex 94.9 80 0
      vertex 85.1 80 0
    endloop
  endfacet
  facet normal 0 1 -0
    outer loop
      vertex 180 80 0
      vertex 170.2 80 35
      vertex 180 80 35
    endloop
  endfacet
  facet normal 0 1 0
    outer loop
      vertex 170.2 80 35
      vertex 180 80 0
      vertex 170.2 80 0
    endloop
  endfacet
  facet normal 0 1 -0
    outer loop
      vertex 265.1 80 0
      vertex 255.3 80 35
      vertex 265.1 80 35
    endloop
  endfacet
  facet normal 0 1 0
    outer loop
      vertex 255.3 80 35
      vertex 265.1 80 0
      vertex 255.3 80 0
    endloop
  endfacet
  facet normal 0 1 0
    outer loop
      vertex 350.2 80 70.4
      vertex 340.4 80 35.9
      vertex 340.4 80 70.4
    endloop
  endfacet
  facet normal 0 1 0
    outer loop
      vertex 265.1 80 35
      vertex 265.1 80 35.9
      vertex 340.4 80 35.9
    endloop
  endfacet
  facet normal 0 1 0
    outer loop
      vertex 265.1 80 35.9
      vertex 265.1 80 35
      vertex 255.3 80 35.9
    endloop
  endfacet
  facet normal 0 1 0
    outer loop
      vertex 255.3 80 35
      vertex 255.3 80 35.9
      vertex 265.1 80 35
    endloop
  endfacet
  facet normal 0 1 0
    outer loop
      vertex 255.3 80 35.9
      vertex 255.3 80 35
      vertex 180 80 35.9
    endloop
  endfacet
  facet normal 0 1 0
    outer loop
      vertex 180 80 35
      vertex 180 80 35.9
      vertex 255.3 80 35
    endloop
  endfacet
  facet normal 0 1 0
    outer loop
      vertex 180 80 35.9
      vertex 180 80 35
      vertex 170.2 80 35.9
    endloop
  endfacet
  facet normal 0 1 0
    outer loop
      vertex 265.1 80 35
      vertex 340.4 80 35.9
      vertex 340.4 80 35
    endloop
  endfacet
  facet normal 0 1 0
    outer loop
      vertex 350.2 80 70.4
      vertex 340.4 80 35
      vertex 340.4 80 35.9
    endloop
  endfacet
  facet normal 0 1 -0
    outer loop
      vertex 350.2 80 0
      vertex 340.4 80 35
      vertex 350.2 80 70.4
    endloop
  endfacet
  facet normal 0 1 0
    outer loop
      vertex 340.4 80 35
      vertex 350.2 80 0
      vertex 340.4 80 0
    endloop
  endfacet
  facet normal 0 1 -0
    outer loop
      vertex 265.1 80 35.9
      vertex 255.3 80 70.4
      vertex 265.1 80 70.4
    endloop
  endfacet
  facet normal 0 1 0
    outer loop
      vertex 255.3 80 70.4
      vertex 265.1 80 35.9
      vertex 255.3 80 35.9
    endloop
  endfacet
  facet normal 0 1 -0
    outer loop
      vertex 180 80 35.9
      vertex 170.2 80 70.4
      vertex 180 80 70.4
    endloop
  endfacet
  facet normal 0 1 0
    outer loop
      vertex 170.2 80 70.4
      vertex 180 80 35.9
      vertex 170.2 80 35.9
    endloop
  endfacet
  facet normal 0 1 -0
    outer loop
      vertex 94.9 80 35.9
      vertex 85.1 80 70.4
      vertex 94.9 80 70.4
    endloop
  endfacet
  facet normal 0 1 0
    outer loop
      vertex 85.1 80 70.4
      vertex 94.9 80 35.9
      vertex 85.1 80 35.9
    endloop
  endfacet
  facet normal 0 1 -0
    outer loop
      vertex 9.8 80 35.9
      vertex 0 80 70.4
      vertex 9.8 80 70.4
    endloop
  endfacet
  facet normal 0 1 0
    outer loop
      vertex 170.2 80 35
      vertex 170.2 80 35.9
      vertex 180 80 35
    endloop
  endfacet
  facet normal 0 1 0
    outer loop
      vertex 170.2 80 35.9
      vertex 170.2 80 35
      vertex 94.9 80 35.9
    endloop
  endfacet
  facet normal 0 1 0
    outer loop
      vertex 94.9 80 35
      vertex 94.9 80 35.9
      vertex 170.2 80 35
    endloop
  endfacet
  facet normal 0 1 0
    outer loop
      vertex 94.9 80 35.9
      vertex 94.9 80 35
      vertex 85.1 80 35.9
    endloop
  endfacet
  facet normal 0 1 0
    outer loop
      vertex 85.1 80 35
      vertex 85.1 80 35.9
      vertex 94.9 80 35
    endloop
  endfacet
  facet normal 0 1 0
    outer loop
      vertex 85.1 80 35.9
      vertex 85.1 80 35
      vertex 9.8 80 35.9
    endloop
  endfacet
  facet normal 0 1 0
    outer loop
      vertex 9.8 80 35
      vertex 9.8 80 35.9
      vertex 85.1 80 35
    endloop
  endfacet
  facet normal 0 1 -0
    outer loop
      vertex 9.8 80 35
      vertex 0 80 70.4
      vertex 9.8 80 35.9
    endloop
  endfacet
  facet normal 0 1 0
    outer loop
      vertex 0 80 0
      vertex 9.8 80 35
      vertex 9.8 80 0
    endloop
  endfacet
  facet normal 0 1 0
    outer loop
      vertex 9.8 80 35
      vertex 0 80 0
      vertex 0 80 70.4
    endloop
  endfacet
  facet normal 0 0 -1
    outer loop
      vertex 2.4 30 0
      vertex 7.2 39.8 0
      vertex 7.2 30 0
    endloop
  endfacet
  facet normal -0 0 -1
    outer loop
      vertex 7.2 39.8 0
      vertex 2.4 30 0
      vertex 2.4 39.8 0
    endloop
  endfacet
  facet normal 0 0 -1
    outer loop
      vertex 7.2 39.8 75.2
      vertex 9.8 4.8 75.2
      vertex 7.2 30 75.2
    endloop
  endfacet
  facet normal 0 0 -1
    outer loop
      vertex 9.8 4.8 75.2
      vertex 2.4 30 75.2
      vertex 7.2 30 75.2
    endloop
  endfacet
  facet normal -0 0 -1
    outer loop
      vertex 2.4 30 75.2
      vertex 0 4.8 75.2
      vertex 2.4 39.8 75.2
    endloop
  endfacet
  facet normal 0 0 -1
    outer loop
      vertex 0 4.8 75.2
      vertex 2.4 30 75.2
      vertex 9.8 4.8 75.2
    endloop
  endfacet
  facet normal 0 0 -1
    outer loop
      vertex 9.8 4.8 75.2
      vertex 7.2 39.8 75.2
      vertex 9.8 75.2 75.2
    endloop
  endfacet
  facet normal 0 0 -1
    outer loop
      vertex 2.4 39.8 75.2
      vertex 9.8 75.2 75.2
      vertex 7.2 39.8 75.2
    endloop
  endfacet
  facet normal 0 0 -1
    outer loop
      vertex 2.4 39.8 75.2
      vertex 0 75.2 75.2
      vertex 9.8 75.2 75.2
    endloop
  endfacet
  facet normal 0 0 -1
    outer loop
      vertex 0 75.2 75.2
      vertex 2.4 39.8 75.2
      vertex 0 4.8 75.2
    endloop
  endfacet
  facet normal 0 1 -0
    outer loop
      vertex 7.2 39.8 0
      vertex 2.4 39.8 30
      vertex 7.2 39.8 30
    endloop
  endfacet
  facet normal 0 1 0
    outer loop
      vertex 2.4 39.8 30
      vertex 7.2 39.8 0
      vertex 2.4 39.8 0
    endloop
  endfacet
  facet normal 0 1 -0
    outer loop
      vertex 7.2 39.8 35.9
      vertex 2.4 39.8 75.2
      vertex 7.2 39.8 75.2
    endloop
  endfacet
  facet normal 0 1 0
    outer loop
      vertex 2.4 39.8 75.2
      vertex 7.2 39.8 35.9
      vertex 2.4 39.8 35.9
    endloop
  endfacet
  facet normal 0 1 -0
    outer loop
      vertex 7.2 39.8 34.8
      vertex 2.4 39.8 35
      vertex 7.2 39.8 35
    endloop
  endfacet
  facet normal 0 1 0
    outer loop
      vertex 2.4 39.8 35
      vertex 7.2 39.8 34.8
      vertex 2.4 39.8 34.8
    endloop
  endfacet
  facet normal 0 -1 0
    outer loop
      vertex 342.8 30 0
      vertex 347.6 30 35
      vertex 342.8 30 35
    endloop
  endfacet
  facet normal 0 -1 -0
    outer loop
      vertex 347.6 30 35
      vertex 342.8 30 0
      vertex 347.6 30 0
    endloop
  endfacet
  facet normal 0 -1 0
    outer loop
      vertex 257.7 30 0
      vertex 262.5 30 35
      vertex 257.7 30 35
    endloop
  endfacet
  facet normal 0 -1 -0
    outer loop
      vertex 262.5 30 35
      vertex 257.7 30 0
      vertex 262.5 30 0
    endloop
  endfacet
  facet normal 0 -1 0
    outer loop
      vertex 172.6 30 0
      vertex 177.4 30 35
      vertex 172.6 30 35
    endloop
  endfacet
  facet normal 0 -1 -0
    outer loop
      vertex 177.4 30 35
      vertex 172.6 30 0
      vertex 177.4 30 0
    endloop
  endfacet
  facet normal 0 -1 0
    outer loop
      vertex 87.5 30 0
      vertex 92.3 30 35
      vertex 87.5 30 35
    endloop
  endfacet
  facet normal 0 -1 -0
    outer loop
      vertex 92.3 30 35
      vertex 87.5 30 0
      vertex 92.3 30 0
    endloop
  endfacet
  facet normal 0 -1 0
    outer loop
      vertex 2.4 30 0
      vertex 7.2 30 35
      vertex 2.4 30 35
    endloop
  endfacet
  facet normal 0 -1 -0
    outer loop
      vertex 7.2 30 35
      vertex 2.4 30 0
      vertex 7.2 30 0
    endloop
  endfacet
  facet normal 0 -1 0
    outer loop
      vertex 2.4 30 35
      vertex 2.4 30 35.9
      vertex 0 30 35.9
    endloop
  endfacet
  facet normal 0 -1 0
    outer loop
      vertex 2.4 30 35.9
      vertex 2.4 30 35
      vertex 7.2 30 35.9
    endloop
  endfacet
  facet normal 0 -1 0
    outer loop
      vertex 7.2 30 35.9
      vertex 7.2 30 35
      vertex 87.5 30 35.9
    endloop
  endfacet
  facet normal 0 -1 0
    outer loop
      vertex 87.5 30 35
      vertex 87.5 30 35.9
      vertex 7.2 30 35
    endloop
  endfacet
  facet normal 0 -1 0
    outer loop
      vertex 92.3 30 35
      vertex 92.3 30 35.9
      vertex 87.5 30 35
    endloop
  endfacet
  facet normal 0 -1 0
    outer loop
      vertex 92.3 30 35.9
      vertex 92.3 30 35
      vertex 172.6 30 35.9
    endloop
  endfacet
  facet normal 0 -1 0
    outer loop
      vertex 172.6 30 35
      vertex 172.6 30 35.9
      vertex 92.3 30 35
    endloop
  endfacet
  facet normal 0 -1 0
    outer loop
      vertex 172.6 30 35.9
      vertex 172.6 30 35
      vertex 177.4 30 35.9
    endloop
  endfacet
  facet normal 0 -1 0
    outer loop
      vertex 177.4 30 35
      vertex 177.4 30 35.9
      vertex 172.6 30 35
    endloop
  endfacet
  facet normal 0 -1 0
    outer loop
      vertex 177.4 30 35.9
      vertex 177.4 30 35
      vertex 257.7 30 35.9
    endloop
  endfacet
  facet normal 0 -1 0
    outer loop
      vertex 2.4 30 35
      vertex 0 30 35.9
      vertex 0 30 35
    endloop
  endfacet
  facet normal 0 -1 -0
    outer loop
      vertex 7.2 30 35.9
      vertex 2.4 30 35
      vertex 7.2 30 35
    endloop
  endfacet
  facet normal 0 -1 0
    outer loop
      vertex 87.5 30 35.9
      vertex 87.5 30 35
      vertex 92.3 30 35.9
    endloop
  endfacet
  facet normal 0 -1 0
    outer loop
      vertex 257.7 30 35
      vertex 257.7 30 35.9
      vertex 177.4 30 35
    endloop
  endfacet
  facet normal 0 -1 0
    outer loop
      vertex 257.7 30 35.9
      vertex 257.7 30 35
      vertex 262.5 30 35.9
    endloop
  endfacet
  facet normal 0 -1 0
    outer loop
      vertex 262.5 30 35
      vertex 262.5 30 35.9
      vertex 257.7 30 35
    endloop
  endfacet
  facet normal 0 -1 0
    outer loop
      vertex 262.5 30 35.9
      vertex 262.5 30 35
      vertex 342.8 30 35.9
    endloop
  endfacet
  facet normal 0 -1 0
    outer loop
      vertex 342.8 30 35
      vertex 342.8 30 35.9
      vertex 262.5 30 35
    endloop
  endfacet
  facet normal 0 -1 0
    outer loop
      vertex 342.8 30 35.9
      vertex 342.8 30 35
      vertex 347.6 30 35.9
    endloop
  endfacet
  facet normal 0 -1 0
    outer loop
      vertex 347.6 30 35
      vertex 347.6 30 35.9
      vertex 342.8 30 35
    endloop
  endfacet
  facet normal 0 -1 0
    outer loop
      vertex 347.6 30 35.9
      vertex 347.6 30 35
      vertex 350 30 35.9
    endloop
  endfacet
  facet normal 0 -1 -0
    outer loop
      vertex 350 30 35.9
      vertex 347.6 30 35
      vertex 350 30 35
    endloop
  endfacet
  facet normal 0 -1 0
    outer loop
      vertex 2.4 30 35.9
      vertex 7.2 30 40.4
      vertex 2.4 30 40.4
    endloop
  endfacet
  facet normal 0 -1 -0
    outer loop
      vertex 7.2 30 40.4
      vertex 2.4 30 35.9
      vertex 7.2 30 35.9
    endloop
  endfacet
  facet normal 0 -1 0
    outer loop
      vertex 87.5 30 35.9
      vertex 92.3 30 40.4
      vertex 87.5 30 40.4
    endloop
  endfacet
  facet normal 0 -1 -0
    outer loop
      vertex 92.3 30 40.4
      vertex 87.5 30 35.9
      vertex 92.3 30 35.9
    endloop
  endfacet
  facet normal 0 -1 0
    outer loop
      vertex 87.5 30 47.1882
      vertex 92.3 30 75.2
      vertex 87.5 30 75.2
    endloop
  endfacet
  facet normal 0 -1 -0
    outer loop
      vertex 92.3 30 75.2
      vertex 87.5 30 47.1882
      vertex 92.3 30 47.1882
    endloop
  endfacet
  facet normal 0 -1 0
    outer loop
      vertex 172.6 30 47.1882
      vertex 177.4 30 75.2
      vertex 172.6 30 75.2
    endloop
  endfacet
  facet normal 0 -1 -0
    outer loop
      vertex 177.4 30 75.2
      vertex 172.6 30 47.1882
      vertex 177.4 30 47.1882
    endloop
  endfacet
  facet normal 0 -1 0
    outer loop
      vertex 342.8 30 47.1882
      vertex 347.6 30 75.2
      vertex 342.8 30 75.2
    endloop
  endfacet
  facet normal 0 -1 -0
    outer loop
      vertex 347.6 30 75.2
      vertex 342.8 30 47.1882
      vertex 347.6 30 47.1882
    endloop
  endfacet
  facet normal 0 -1 0
    outer loop
      vertex 172.6 30 35.9
      vertex 177.4 30 40.4
      vertex 172.6 30 40.4
    endloop
  endfacet
  facet normal 0 -1 -0
    outer loop
      vertex 177.4 30 40.4
      vertex 172.6 30 35.9
      vertex 177.4 30 35.9
    endloop
  endfacet
  facet normal 0 -1 0
    outer loop
      vertex 257.7 30 35.9
      vertex 262.5 30 40.4
      vertex 257.7 30 40.4
    endloop
  endfacet
  facet normal 0 -1 -0
    outer loop
      vertex 262.5 30 40.4
      vertex 257.7 30 35.9
      vertex 262.5 30 35.9
    endloop
  endfacet
  facet normal 0 -1 0
    outer loop
      vertex 257.7 30 47.1882
      vertex 262.5 30 75.2
      vertex 257.7 30 75.2
    endloop
  endfacet
  facet normal 0 -1 -0
    outer loop
      vertex 262.5 30 75.2
      vertex 257.7 30 47.1882
      vertex 262.5 30 47.1882
    endloop
  endfacet
  facet normal 0 -1 0
    outer loop
      vertex 342.8 30 35.9
      vertex 347.6 30 40.4
      vertex 342.8 30 40.4
    endloop
  endfacet
  facet normal 0 -1 -0
    outer loop
      vertex 347.6 30 40.4
      vertex 342.8 30 35.9
      vertex 347.6 30 35.9
    endloop
  endfacet
  facet normal 0 -0 0
    outer loop
      vertex 177.4 30 40.4
      vertex 177.4 30 35.9
      vertex 177.4 30 75.2
    endloop
  endfacet
  facet normal 0 0 0
    outer loop
      vertex 257.7 30 75.2
      vertex 257.7 30 35.9
      vertex 257.7 30 40.4
    endloop
  endfacet
  facet normal 0 0 0
    outer loop
      vertex 347.6 30 75.2
      vertex 347.6 30 47.1882
      vertex 347.6 30 40.4
    endloop
  endfacet
  facet normal 0 0 0
    outer loop
      vertex 87.5 30 75.2
      vertex 87.5 30 35.9
      vertex 87.5 30 40.4
    endloop
  endfacet
  facet normal 0 0 0
    outer loop
      vertex 177.4 30 75.2
      vertex 177.4 30 47.1882
      vertex 177.4 30 40.4
    endloop
  endfacet
  facet normal -0 0 0
    outer loop
      vertex 257.7 30 47.1882
      vertex 257.7 30 75.2
      vertex 257.7 30 40.4
    endloop
  endfacet
  facet normal 0 -0 0
    outer loop
      vertex 347.6 30 40.4
      vertex 347.6 30 35.9
      vertex 347.6 30 75.2
    endloop
  endfacet
  facet normal 0 -0 0
    outer loop
      vertex 92.3 30 40.4
      vertex 92.3 30 35.9
      vertex 92.3 30 75.2
    endloop
  endfacet
  facet normal 0 0 0
    outer loop
      vertex 87.5 30 75.2
      vertex 87.5 30 40.4
      vertex 87.5 30 47.1882
    endloop
  endfacet
  facet normal 0 0 0
    outer loop
      vertex 92.3 30 75.2
      vertex 92.3 30 47.1882
      vertex 92.3 30 40.4
    endloop
  endfacet
  facet normal 0 -1 0
    outer loop
      vertex 2.4 30 47.1882
      vertex 7.2 30 75.2
      vertex 2.4 30 75.2
    endloop
  endfacet
  facet normal 0 -1 -0
    outer loop
      vertex 7.2 30 75.2
      vertex 2.4 30 47.1882
      vertex 7.2 30 47.1882
    endloop
  endfacet
  facet normal -1 0 0
    outer loop
      vertex 2.4 30 40.4
      vertex 2.4 4.8 70.4
      vertex 2.4 30 47.1882
    endloop
  endfacet
  facet normal -1 0 0
    outer loop
      vertex 2.4 30 40.4
      vertex 2.4 3.8147e-07 70.4
      vertex 2.4 4.8 70.4
    endloop
  endfacet
  facet normal -1 -0 -0
    outer loop
      vertex 2.4 3.8147e-07 70.4
      vertex 2.4 30 40.4
      vertex 2.4 0 70.4
    endloop
  endfacet
  facet normal -1 0 0
    outer loop
      vertex 2.4 30 40.4
      vertex 2.4 39.8 35.9
      vertex 2.4 30 35.9
    endloop
  endfacet
  facet normal -1 0 0
    outer loop
      vertex 2.4 30 47.1882
      vertex 2.4 39.8 35.9
      vertex 2.4 30 40.4
    endloop
  endfacet
  facet normal -1 0 0
    outer loop
      vertex 2.4 39.8 35.9
      vertex 2.4 30 47.1882
      vertex 2.4 39.8 75.2
    endloop
  endfacet
  facet normal -1 -0 0
    outer loop
      vertex 2.4 39.8 75.2
      vertex 2.4 30 47.1882
      vertex 2.4 30 75.2
    endloop
  endfacet
  facet normal -1 0 0
    outer loop
      vertex 2.4 30 47.1882
      vertex 2.4 4.8 70.4
      vertex 2.4 4.8 72.3882
    endloop
  endfacet
  facet normal -1 0 0
    outer loop
      vertex 2.4 30 0
      vertex 2.4 39.8 30
      vertex 2.4 39.8 0
    endloop
  endfacet
  facet normal -1 0 0
    outer loop
      vertex 2.4 30 35
      vertex 2.4 39.8 30
      vertex 2.4 30 0
    endloop
  endfacet
  facet normal -1 0 0
    outer loop
      vertex 2.4 39.8 30
      vertex 2.4 30 35
      vertex 2.4 39.8 34.8
    endloop
  endfacet
  facet normal -1 0 0
    outer loop
      vertex 2.4 39.8 34.8
      vertex 2.4 30 35
      vertex 2.4 39.8 35
    endloop
  endfacet
  facet normal -1 0 0
    outer loop
      vertex 2.4 39.8 30
      vertex 2.4 75.2 34.8
      vertex 2.4 75.2 30
    endloop
  endfacet
  facet normal -1 -0 0
    outer loop
      vertex 2.4 75.2 34.8
      vertex 2.4 39.8 30
      vertex 2.4 39.8 34.8
    endloop
  endfacet
  facet normal 1 -0 0
    outer loop
      vertex 7.2 4.8 70.4
      vertex 7.2 30 47.1882
      vertex 7.2 4.8 72.3882
    endloop
  endfacet
  facet normal 1 0 0
    outer loop
      vertex 7.2 30 47.1882
      vertex 7.2 4.8 70.4
      vertex 7.2 30 40.4
    endloop
  endfacet
  facet normal 1 -0 0
    outer loop
      vertex 7.2 3.8147e-07 70.4
      vertex 7.2 30 40.4
      vertex 7.2 4.8 70.4
    endloop
  endfacet
  facet normal 1 0 0
    outer loop
      vertex 7.2 30 40.4
      vertex 7.2 3.8147e-07 70.4
      vertex 7.2 0 70.4
    endloop
  endfacet
  facet normal 1 0 0
    outer loop
      vertex 7.2 30 47.1882
      vertex 7.2 39.8 75.2
      vertex 7.2 30 75.2
    endloop
  endfacet
  facet normal 1 0 0
    outer loop
      vertex 7.2 39.8 75.2
      vertex 7.2 30 47.1882
      vertex 7.2 39.8 35.9
    endloop
  endfacet
  facet normal 1 -0 0
    outer loop
      vertex 7.2 30 40.4
      vertex 7.2 39.8 35.9
      vertex 7.2 30 47.1882
    endloop
  endfacet
  facet normal 1 0 0
    outer loop
      vertex 7.2 39.8 35.9
      vertex 7.2 30 40.4
      vertex 7.2 30 35.9
    endloop
  endfacet
  facet normal 1 -0 0
    outer loop
      vertex 7.2 30 35
      vertex 7.2 39.8 34.8
      vertex 7.2 39.8 35
    endloop
  endfacet
  facet normal 1 0 0
    outer loop
      vertex 7.2 39.8 34.8
      vertex 7.2 30 35
      vertex 7.2 39.8 30
    endloop
  endfacet
  facet normal 1 0 0
    outer loop
      vertex 7.2 30 0
      vertex 7.2 39.8 30
      vertex 7.2 30 35
    endloop
  endfacet
  facet normal 1 0 0
    outer loop
      vertex 7.2 39.8 30
      vertex 7.2 30 0
      vertex 7.2 39.8 0
    endloop
  endfacet
  facet normal 1 -0 0
    outer loop
      vertex 7.2 39.8 34.8
      vertex 7.2 75.2 30
      vertex 7.2 75.2 34.8
    endloop
  endfacet
  facet normal 1 0 0
    outer loop
      vertex 7.2 75.2 30
      vertex 7.2 39.8 34.8
      vertex 7.2 39.8 30
    endloop
  endfacet
  facet normal -0 0 1
    outer loop
      vertex 85.1 80 70.4
      vertex 94.9 75.2 70.4
      vertex 94.9 80 70.4
    endloop
  endfacet
  facet normal 0 0 1
    outer loop
      vertex 94.9 75.2 70.4
      vertex 85.1 80 70.4
      vertex 85.1 75.2 70.4
    endloop
  endfacet
  facet normal 1 -0 0
    outer loop
      vertex 94.9 75.2 35
      vertex 94.9 80 0
      vertex 94.9 80 35
    endloop
  endfacet
  facet normal 1 0 0
    outer loop
      vertex 94.9 80 0
      vertex 94.9 75.2 35
      vertex 94.9 75.2 0
    endloop
  endfacet
  facet normal 1 -0 0
    outer loop
      vertex 94.9 75.2 70.4
      vertex 94.9 80 35.9
      vertex 94.9 80 70.4
    endloop
  endfacet
  facet normal 1 0 0
    outer loop
      vertex 94.9 80 35.9
      vertex 94.9 75.2 70.4
      vertex 94.9 75.2 35.9
    endloop
  endfacet
  facet normal -1 0 0
    outer loop
      vertex 85.1 75.2 35.9
      vertex 85.1 80 70.4
      vertex 85.1 80 35.9
    endloop
  endfacet
  facet normal -1 -0 0
    outer loop
      vertex 85.1 80 70.4
      vertex 85.1 75.2 35.9
      vertex 85.1 75.2 70.4
    endloop
  endfacet
  facet normal -1 0 0
    outer loop
      vertex 85.1 75.2 0
      vertex 85.1 80 35
      vertex 85.1 80 0
    endloop
  endfacet
  facet normal -1 -0 0
    outer loop
      vertex 85.1 80 35
      vertex 85.1 75.2 0
      vertex 85.1 75.2 35
    endloop
  endfacet
  facet normal 0 0 -1
    outer loop
      vertex 85.1 75.2 0
      vertex 94.9 80 0
      vertex 94.9 75.2 0
    endloop
  endfacet
  facet normal -0 0 -1
    outer loop
      vertex 94.9 80 0
      vertex 85.1 75.2 0
      vertex 85.1 80 0
    endloop
  endfacet
  facet normal 0 -1 0
    outer loop
      vertex 85.1 75.2 0
      vertex 94.9 75.2 35
      vertex 85.1 75.2 35
    endloop
  endfacet
  facet normal 0 -1 -0
    outer loop
      vertex 94.9 75.2 35
      vertex 85.1 75.2 0
      vertex 94.9 75.2 0
    endloop
  endfacet
  facet normal 0 -1 0
    outer loop
      vertex 85.1 75.2 35.9
      vertex 94.9 75.2 70.4
      vertex 85.1 75.2 70.4
    endloop
  endfacet
  facet normal 0 -1 -0
    outer loop
      vertex 94.9 75.2 70.4
      vertex 85.1 75.2 35.9
      vertex 94.9 75.2 35.9
    endloop
  endfacet
  facet normal 0 0 -1
    outer loop
      vertex 87.5 30 0
      vertex 92.3 39.8 0
      vertex 92.3 30 0
    endloop
  endfacet
  facet normal -0 0 -1
    outer loop
      vertex 92.3 39.8 0
      vertex 87.5 30 0
      vertex 87.5 39.8 0
    endloop
  endfacet
  facet normal 0 0 -1
    outer loop
      vertex 92.3 39.8 75.2
      vertex 94.9 4.8 75.2
      vertex 92.3 30 75.2
    endloop
  endfacet
  facet normal 0 0 -1
    outer loop
      vertex 94.9 4.8 75.2
      vertex 87.5 30 75.2
      vertex 92.3 30 75.2
    endloop
  endfacet
  facet normal -0 0 -1
    outer loop
      vertex 87.5 30 75.2
      vertex 85.1 4.8 75.2
      vertex 87.5 39.8 75.2
    endloop
  endfacet
  facet normal 0 0 -1
    outer loop
      vertex 85.1 4.8 75.2
      vertex 87.5 30 75.2
      vertex 94.9 4.8 75.2
    endloop
  endfacet
  facet normal 0 0 -1
    outer loop
      vertex 94.9 4.8 75.2
      vertex 92.3 39.8 75.2
      vertex 94.9 75.2 75.2
    endloop
  endfacet
  facet normal 0 0 -1
    outer loop
      vertex 87.5 39.8 75.2
      vertex 94.9 75.2 75.2
      vertex 92.3 39.8 75.2
    endloop
  endfacet
  facet normal 0 0 -1
    outer loop
      vertex 87.5 39.8 75.2
      vertex 85.1 75.2 75.2
      vertex 94.9 75.2 75.2
    endloop
  endfacet
  facet normal 0 0 -1
    outer loop
      vertex 85.1 75.2 75.2
      vertex 87.5 39.8 75.2
      vertex 85.1 4.8 75.2
    endloop
  endfacet
  facet normal 0 1 -0
    outer loop
      vertex 92.3 39.8 0
      vertex 87.5 39.8 30
      vertex 92.3 39.8 30
    endloop
  endfacet
  facet normal 0 1 0
    outer loop
      vertex 87.5 39.8 30
      vertex 92.3 39.8 0
      vertex 87.5 39.8 0
    endloop
  endfacet
  facet normal 0 1 -0
    outer loop
      vertex 92.3 39.8 34.8
      vertex 87.5 39.8 35
      vertex 92.3 39.8 35
    endloop
  endfacet
  facet normal 0 1 0
    outer loop
      vertex 87.5 39.8 35
      vertex 92.3 39.8 34.8
      vertex 87.5 39.8 34.8
    endloop
  endfacet
  facet normal 0 0 0
    outer loop
      vertex 87.5 39.8 35
      vertex 87.5 39.8 34.8
      vertex 87.5 39.8 30
    endloop
  endfacet
  facet normal 0 0 0
    outer loop
      vertex 92.3 39.8 30
      vertex 92.3 39.8 34.8
      vertex 92.3 39.8 35
    endloop
  endfacet
  facet normal 0 -0 0
    outer loop
      vertex 87.5 39.8 30
      vertex 87.5 39.8 0
      vertex 87.5 39.8 35
    endloop
  endfacet
  facet normal 0 0 0
    outer loop
      vertex 92.3 39.8 0
      vertex 92.3 39.8 30
      vertex 92.3 39.8 35
    endloop
  endfacet
  facet normal 0 1 -0
    outer loop
      vertex 92.3 39.8 35.9
      vertex 87.5 39.8 75.2
      vertex 92.3 39.8 75.2
    endloop
  endfacet
  facet normal 0 1 0
    outer loop
      vertex 87.5 39.8 75.2
      vertex 92.3 39.8 35.9
      vertex 87.5 39.8 35.9
    endloop
  endfacet
  facet normal -1 0 0
    outer loop
      vertex 87.5 30 0
      vertex 87.5 39.8 35
      vertex 87.5 39.8 0
    endloop
  endfacet
  facet normal -1 -0 0
    outer loop
      vertex 87.5 39.8 35
      vertex 87.5 30 0
      vertex 87.5 30 35
    endloop
  endfacet
  facet normal -1 0 0
    outer loop
      vertex 87.5 30 35.9
      vertex 87.5 39.8 75.2
      vertex 87.5 39.8 35.9
    endloop
  endfacet
  facet normal -1 -0 0
    outer loop
      vertex 87.5 39.8 75.2
      vertex 87.5 30 35.9
      vertex 87.5 30 75.2
    endloop
  endfacet
  facet normal 1 -0 0
    outer loop
      vertex 92.3 30 35
      vertex 92.3 39.8 0
      vertex 92.3 39.8 35
    endloop
  endfacet
  facet normal 1 0 0
    outer loop
      vertex 92.3 39.8 0
      vertex 92.3 30 35
      vertex 92.3 30 0
    endloop
  endfacet
  facet normal 1 -0 0
    outer loop
      vertex 92.3 30 75.2
      vertex 92.3 39.8 35.9
      vertex 92.3 39.8 75.2
    endloop
  endfacet
  facet normal 1 0 0
    outer loop
      vertex 92.3 39.8 35.9
      vertex 92.3 30 75.2
      vertex 92.3 30 35.9
    endloop
  endfacet
  facet normal -0 0 1
    outer loop
      vertex 170.2 80 70.4
      vertex 180 75.2 70.4
      vertex 180 80 70.4
    endloop
  endfacet
  facet normal 0 0 1
    outer loop
      vertex 180 75.2 70.4
      vertex 170.2 80 70.4
      vertex 170.2 75.2 70.4
    endloop
  endfacet
  facet normal 1 -0 0
    outer loop
      vertex 180 75.2 35
      vertex 180 80 0
      vertex 180 80 35
    endloop
  endfacet
  facet normal 1 0 0
    outer loop
      vertex 180 80 0
      vertex 180 75.2 35
      vertex 180 75.2 0
    endloop
  endfacet
  facet normal 1 -0 0
    outer loop
      vertex 180 75.2 70.4
      vertex 180 80 35.9
      vertex 180 80 70.4
    endloop
  endfacet
  facet normal 1 0 0
    outer loop
      vertex 180 80 35.9
      vertex 180 75.2 70.4
      vertex 180 75.2 35.9
    endloop
  endfacet
  facet normal -1 0 0
    outer loop
      vertex 170.2 75.2 35.9
      vertex 170.2 80 70.4
      vertex 170.2 80 35.9
    endloop
  endfacet
  facet normal -1 -0 0
    outer loop
      vertex 170.2 80 70.4
      vertex 170.2 75.2 35.9
      vertex 170.2 75.2 70.4
    endloop
  endfacet
  facet normal -1 0 0
    outer loop
      vertex 170.2 75.2 0
      vertex 170.2 80 35
      vertex 170.2 80 0
    endloop
  endfacet
  facet normal -1 -0 0
    outer loop
      vertex 170.2 80 35
      vertex 170.2 75.2 0
      vertex 170.2 75.2 35
    endloop
  endfacet
  facet normal 0 0 -1
    outer loop
      vertex 170.2 75.2 0
      vertex 180 80 0
      vertex 180 75.2 0
    endloop
  endfacet
  facet normal -0 0 -1
    outer loop
      vertex 180 80 0
      vertex 170.2 75.2 0
      vertex 170.2 80 0
    endloop
  endfacet
  facet normal 0 -1 0
    outer loop
      vertex 170.2 75.2 0
      vertex 180 75.2 35
      vertex 170.2 75.2 35
    endloop
  endfacet
  facet normal 0 -1 -0
    outer loop
      vertex 180 75.2 35
      vertex 170.2 75.2 0
      vertex 180 75.2 0
    endloop
  endfacet
  facet normal 0 -1 0
    outer loop
      vertex 170.2 75.2 35.9
      vertex 180 75.2 70.4
      vertex 170.2 75.2 70.4
    endloop
  endfacet
  facet normal 0 -1 -0
    outer loop
      vertex 180 75.2 70.4
      vertex 170.2 75.2 35.9
      vertex 180 75.2 35.9
    endloop
  endfacet
  facet normal 0 0 -1
    outer loop
      vertex 172.6 30 0
      vertex 177.4 39.8 0
      vertex 177.4 30 0
    endloop
  endfacet
  facet normal -0 0 -1
    outer loop
      vertex 177.4 39.8 0
      vertex 172.6 30 0
      vertex 172.6 39.8 0
    endloop
  endfacet
  facet normal 0 0 -1
    outer loop
      vertex 177.4 39.8 75.2
      vertex 180 4.8 75.2
      vertex 177.4 30 75.2
    endloop
  endfacet
  facet normal 0 0 -1
    outer loop
      vertex 180 4.8 75.2
      vertex 172.6 30 75.2
      vertex 177.4 30 75.2
    endloop
  endfacet
  facet normal -0 0 -1
    outer loop
      vertex 172.6 30 75.2
      vertex 170.2 4.8 75.2
      vertex 172.6 39.8 75.2
    endloop
  endfacet
  facet normal 0 0 -1
    outer loop
      vertex 170.2 4.8 75.2
      vertex 172.6 30 75.2
      vertex 180 4.8 75.2
    endloop
  endfacet
  facet normal 0 0 -1
    outer loop
      vertex 180 4.8 75.2
      vertex 177.4 39.8 75.2
      vertex 180 75.2 75.2
    endloop
  endfacet
  facet normal 0 0 -1
    outer loop
      vertex 172.6 39.8 75.2
      vertex 180 75.2 75.2
      vertex 177.4 39.8 75.2
    endloop
  endfacet
  facet normal 0 0 -1
    outer loop
      vertex 172.6 39.8 75.2
      vertex 170.2 75.2 75.2
      vertex 180 75.2 75.2
    endloop
  endfacet
  facet normal 0 0 -1
    outer loop
      vertex 170.2 75.2 75.2
      vertex 172.6 39.8 75.2
      vertex 170.2 4.8 75.2
    endloop
  endfacet
  facet normal 0 1 -0
    outer loop
      vertex 177.4 39.8 0
      vertex 172.6 39.8 30
      vertex 177.4 39.8 30
    endloop
  endfacet
  facet normal 0 1 0
    outer loop
      vertex 172.6 39.8 30
      vertex 177.4 39.8 0
      vertex 172.6 39.8 0
    endloop
  endfacet
  facet normal 0 1 -0
    outer loop
      vertex 177.4 39.8 34.8
      vertex 172.6 39.8 35
      vertex 177.4 39.8 35
    endloop
  endfacet
  facet normal 0 1 0
    outer loop
      vertex 172.6 39.8 35
      vertex 177.4 39.8 34.8
      vertex 172.6 39.8 34.8
    endloop
  endfacet
  facet normal 0 0 0
    outer loop
      vertex 177.4 39.8 0
      vertex 177.4 39.8 30
      vertex 177.4 39.8 34.8
    endloop
  endfacet
  facet normal -0 0 0
    outer loop
      vertex 177.4 39.8 34.8
      vertex 177.4 39.8 35
      vertex 177.4 39.8 0
    endloop
  endfacet
  facet normal 0 1 -0
    outer loop
      vertex 177.4 39.8 35.9
      vertex 172.6 39.8 75.2
      vertex 177.4 39.8 75.2
    endloop
  endfacet
  facet normal 0 1 0
    outer loop
      vertex 172.6 39.8 75.2
      vertex 177.4 39.8 35.9
      vertex 172.6 39.8 35.9
    endloop
  endfacet
  facet normal -1 0 0
    outer loop
      vertex 172.6 39.8 0
      vertex 172.6 39.6 30
      vertex 172.6 39.8 30
    endloop
  endfacet
  facet normal -1 0 0
    outer loop
      vertex 172.6 30 35
      vertex 172.6 39.6 30
      vertex 172.6 30 0
    endloop
  endfacet
  facet normal -1 0 0
    outer loop
      vertex 172.6 30 0
      vertex 172.6 39.6 30
      vertex 172.6 39.8 0
    endloop
  endfacet
  facet normal -1 0 0
    outer loop
      vertex 172.6 39.6 34.8
      vertex 172.6 39.8 35
      vertex 172.6 39.8 34.8
    endloop
  endfacet
  facet normal -1 0 0
    outer loop
      vertex 172.6 39.6 34.8
      vertex 172.6 30 35
      vertex 172.6 39.8 35
    endloop
  endfacet
  facet normal -1 0 0
    outer loop
      vertex 172.6 39.6 30
      vertex 172.6 30 35
      vertex 172.6 39.6 34.8
    endloop
  endfacet
  facet normal -1 0 0
    outer loop
      vertex 172.6 39.8 35.9
      vertex 172.6 33.3941 43.7941
      vertex 172.6 39.8 75.2
    endloop
  endfacet
  facet normal -1 0 0
    outer loop
      vertex 172.6 30 40.4
      vertex 172.6 39.8 35.9
      vertex 172.6 30 35.9
    endloop
  endfacet
  facet normal -1 0 0
    outer loop
      vertex 172.6 39.8 35.9
      vertex 172.6 30 40.4
      vertex 172.6 33.3941 43.7941
    endloop
  endfacet
  facet normal -1 0 0
    outer loop
      vertex 172.6 30 47.1882
      vertex 172.6 39.8 75.2
      vertex 172.6 33.3941 43.7941
    endloop
  endfacet
  facet normal -1 -0 0
    outer loop
      vertex 172.6 39.8 75.2
      vertex 172.6 30 47.1882
      vertex 172.6 30 75.2
    endloop
  endfacet
  facet normal 1 -0 0
    outer loop
      vertex 177.4 30 35
      vertex 177.4 39.8 0
      vertex 177.4 39.8 35
    endloop
  endfacet
  facet normal 1 0 0
    outer loop
      vertex 177.4 39.8 0
      vertex 177.4 30 35
      vertex 177.4 30 0
    endloop
  endfacet
  facet normal 1 -0 0
    outer loop
      vertex 177.4 30 75.2
      vertex 177.4 39.8 35.9
      vertex 177.4 39.8 75.2
    endloop
  endfacet
  facet normal 1 0 0
    outer loop
      vertex 177.4 39.8 35.9
      vertex 177.4 30 75.2
      vertex 177.4 30 35.9
    endloop
  endfacet
  facet normal -0 0 1
    outer loop
      vertex 255.3 80 70.4
      vertex 265.1 75.2 70.4
      vertex 265.1 80 70.4
    endloop
  endfacet
  facet normal 0 0 1
    outer loop
      vertex 265.1 75.2 70.4
      vertex 255.3 80 70.4
      vertex 255.3 75.2 70.4
    endloop
  endfacet
  facet normal 1 -0 0
    outer loop
      vertex 265.1 75.2 35
      vertex 265.1 80 0
      vertex 265.1 80 35
    endloop
  endfacet
  facet normal 1 0 0
    outer loop
      vertex 265.1 80 0
      vertex 265.1 75.2 35
      vertex 265.1 75.2 0
    endloop
  endfacet
  facet normal 1 -0 0
    outer loop
      vertex 265.1 75.2 70.4
      vertex 265.1 80 35.9
      vertex 265.1 80 70.4
    endloop
  endfacet
  facet normal 1 0 0
    outer loop
      vertex 265.1 80 35.9
      vertex 265.1 75.2 70.4
      vertex 265.1 75.2 35.9
    endloop
  endfacet
  facet normal -1 0 0
    outer loop
      vertex 255.3 75.2 35.9
      vertex 255.3 80 70.4
      vertex 255.3 80 35.9
    endloop
  endfacet
  facet normal -1 -0 0
    outer loop
      vertex 255.3 80 70.4
      vertex 255.3 75.2 35.9
      vertex 255.3 75.2 70.4
    endloop
  endfacet
  facet normal -1 0 0
    outer loop
      vertex 255.3 75.2 0
      vertex 255.3 80 35
      vertex 255.3 80 0
    endloop
  endfacet
  facet normal -1 -0 0
    outer loop
      vertex 255.3 80 35
      vertex 255.3 75.2 0
      vertex 255.3 75.2 35
    endloop
  endfacet
  facet normal 0 0 -1
    outer loop
      vertex 255.3 75.2 0
      vertex 265.1 80 0
      vertex 265.1 75.2 0
    endloop
  endfacet
  facet normal -0 0 -1
    outer loop
      vertex 265.1 80 0
      vertex 255.3 75.2 0
      vertex 255.3 80 0
    endloop
  endfacet
  facet normal 0 -1 0
    outer loop
      vertex 255.3 75.2 0
      vertex 265.1 75.2 35
      vertex 255.3 75.2 35
    endloop
  endfacet
  facet normal 0 -1 -0
    outer loop
      vertex 265.1 75.2 35
      vertex 255.3 75.2 0
      vertex 265.1 75.2 0
    endloop
  endfacet
  facet normal 0 -1 0
    outer loop
      vertex 255.3 75.2 35.9
      vertex 265.1 75.2 70.4
      vertex 255.3 75.2 70.4
    endloop
  endfacet
  facet normal 0 -1 -0
    outer loop
      vertex 265.1 75.2 70.4
      vertex 255.3 75.2 35.9
      vertex 265.1 75.2 35.9
    endloop
  endfacet
  facet normal 0 0 -1
    outer loop
      vertex 257.7 30 0
      vertex 262.5 39.8 0
      vertex 262.5 30 0
    endloop
  endfacet
  facet normal -0 0 -1
    outer loop
      vertex 262.5 39.8 0
      vertex 257.7 30 0
      vertex 257.7 39.8 0
    endloop
  endfacet
  facet normal 0 0 -1
    outer loop
      vertex 262.5 39.8 75.2
      vertex 265.1 4.8 75.2
      vertex 262.5 30 75.2
    endloop
  endfacet
  facet normal 0 0 -1
    outer loop
      vertex 265.1 4.8 75.2
      vertex 257.7 30 75.2
      vertex 262.5 30 75.2
    endloop
  endfacet
  facet normal -0 0 -1
    outer loop
      vertex 257.7 30 75.2
      vertex 255.3 4.8 75.2
      vertex 257.7 39.8 75.2
    endloop
  endfacet
  facet normal 0 0 -1
    outer loop
      vertex 255.3 4.8 75.2
      vertex 257.7 30 75.2
      vertex 265.1 4.8 75.2
    endloop
  endfacet
  facet normal 0 0 -1
    outer loop
      vertex 265.1 4.8 75.2
      vertex 262.5 39.8 75.2
      vertex 265.1 75.2 75.2
    endloop
  endfacet
  facet normal 0 0 -1
    outer loop
      vertex 257.7 39.8 75.2
      vertex 265.1 75.2 75.2
      vertex 262.5 39.8 75.2
    endloop
  endfacet
  facet normal 0 0 -1
    outer loop
      vertex 257.7 39.8 75.2
      vertex 255.3 75.2 75.2
      vertex 265.1 75.2 75.2
    endloop
  endfacet
  facet normal 0 0 -1
    outer loop
      vertex 255.3 75.2 75.2
      vertex 257.7 39.8 75.2
      vertex 255.3 4.8 75.2
    endloop
  endfacet
  facet normal 0 1 -0
    outer loop
      vertex 262.5 39.8 0
      vertex 257.7 39.8 30
      vertex 262.5 39.8 30
    endloop
  endfacet
  facet normal 0 1 0
    outer loop
      vertex 257.7 39.8 30
      vertex 262.5 39.8 0
      vertex 257.7 39.8 0
    endloop
  endfacet
  facet normal 0 1 -0
    outer loop
      vertex 262.5 39.8 34.8
      vertex 257.7 39.8 35
      vertex 262.5 39.8 35
    endloop
  endfacet
  facet normal 0 1 0
    outer loop
      vertex 257.7 39.8 35
      vertex 262.5 39.8 34.8
      vertex 257.7 39.8 34.8
    endloop
  endfacet
  facet normal 0 0 0
    outer loop
      vertex 257.7 39.8 34.8
      vertex 257.7 39.8 30
      vertex 257.7 39.8 0
    endloop
  endfacet
  facet normal 0 0 0
    outer loop
      vertex 257.7 39.8 35
      vertex 257.7 39.8 34.8
      vertex 257.7 39.8 0
    endloop
  endfacet
  facet normal 0 1 -0
    outer loop
      vertex 262.5 39.8 35.9
      vertex 257.7 39.8 75.2
      vertex 262.5 39.8 75.2
    endloop
  endfacet
  facet normal 0 1 0
    outer loop
      vertex 257.7 39.8 75.2
      vertex 262.5 39.8 35.9
      vertex 257.7 39.8 35.9
    endloop
  endfacet
  facet normal -1 0 0
    outer loop
      vertex 257.7 30 0
      vertex 257.7 39.8 35
      vertex 257.7 39.8 0
    endloop
  endfacet
  facet normal -1 -0 0
    outer loop
      vertex 257.7 39.8 35
      vertex 257.7 30 0
      vertex 257.7 30 35
    endloop
  endfacet
  facet normal -1 0 0
    outer loop
      vertex 257.7 30 35.9
      vertex 257.7 39.8 75.2
      vertex 257.7 39.8 35.9
    endloop
  endfacet
  facet normal -1 -0 0
    outer loop
      vertex 257.7 39.8 75.2
      vertex 257.7 30 35.9
      vertex 257.7 30 75.2
    endloop
  endfacet
  facet normal 1 0 0
    outer loop
      vertex 262.5 39.8 35
      vertex 262.5 39.6 34.8
      vertex 262.5 39.8 34.8
    endloop
  endfacet
  facet normal 1 0 0
    outer loop
      vertex 262.5 39.6 34.8
      vertex 262.5 30 35
      vertex 262.5 39.6 30
    endloop
  endfacet
  facet normal 1 -0 0
    outer loop
      vertex 262.5 30 35
      vertex 262.5 39.6 34.8
      vertex 262.5 39.8 35
    endloop
  endfacet
  facet normal 1 -0 0
    outer loop
      vertex 262.5 39.6 30
      vertex 262.5 39.8 0
      vertex 262.5 39.8 30
    endloop
  endfacet
  facet normal 1 0 0
    outer loop
      vertex 262.5 30 0
      vertex 262.5 39.6 30
      vertex 262.5 30 35
    endloop
  endfacet
  facet normal 1 0 0
    outer loop
      vertex 262.5 39.6 30
      vertex 262.5 30 0
      vertex 262.5 39.8 0
    endloop
  endfacet
  facet normal 1 0 0
    outer loop
      vertex 262.5 39.8 75.2
      vertex 262.5 33.3941 43.7941
      vertex 262.5 39.8 35.9
    endloop
  endfacet
  facet normal 1 0 0
    outer loop
      vertex 262.5 30 47.1882
      vertex 262.5 39.8 75.2
      vertex 262.5 30 75.2
    endloop
  endfacet
  facet normal 1 0 0
    outer loop
      vertex 262.5 39.8 75.2
      vertex 262.5 30 47.1882
      vertex 262.5 33.3941 43.7941
    endloop
  endfacet
  facet normal 1 -0 0
    outer loop
      vertex 262.5 30 40.4
      vertex 262.5 39.8 35.9
      vertex 262.5 33.3941 43.7941
    endloop
  endfacet
  facet normal 1 0 0
    outer loop
      vertex 262.5 39.8 35.9
      vertex 262.5 30 40.4
      vertex 262.5 30 35.9
    endloop
  endfacet
  facet normal -0 0 1
    outer loop
      vertex 340.4 80 70.4
      vertex 350.2 75.2 70.4
      vertex 350.2 80 70.4
    endloop
  endfacet
  facet normal 0 0 1
    outer loop
      vertex 350.2 75.2 70.4
      vertex 340.4 80 70.4
      vertex 340.4 75.2 70.4
    endloop
  endfacet
  facet normal 1 -0 0
    outer loop
      vertex 350.2 75.2 70.4
      vertex 350.2 80 0
      vertex 350.2 80 70.4
    endloop
  endfacet
  facet normal 1 0 0
    outer loop
      vertex 350.2 80 0
      vertex 350.2 75.2 70.4
      vertex 350.2 75.2 0
    endloop
  endfacet
  facet normal -1 0 0
    outer loop
      vertex 340.4 75.2 35.9
      vertex 340.4 80 70.4
      vertex 340.4 80 35.9
    endloop
  endfacet
  facet normal -1 -0 0
    outer loop
      vertex 340.4 80 70.4
      vertex 340.4 75.2 35.9
      vertex 340.4 75.2 70.4
    endloop
  endfacet
  facet normal -1 0 0
    outer loop
      vertex 340.4 75.2 0
      vertex 340.4 80 35
      vertex 340.4 80 0
    endloop
  endfacet
  facet normal -1 -0 0
    outer loop
      vertex 340.4 80 35
      vertex 340.4 75.2 0
      vertex 340.4 75.2 35
    endloop
  endfacet
  facet normal 0 0 -1
    outer loop
      vertex 340.4 75.2 0
      vertex 350.2 80 0
      vertex 350.2 75.2 0
    endloop
  endfacet
  facet normal -0 0 -1
    outer loop
      vertex 350.2 80 0
      vertex 340.4 75.2 0
      vertex 340.4 80 0
    endloop
  endfacet
  facet normal 0 -1 0
    outer loop
      vertex 340.4 75.2 35
      vertex 340.4 75.2 0
      vertex 350 75.2 35
    endloop
  endfacet
  facet normal 0 -1 0
    outer loop
      vertex 340.4 75.2 35.9
      vertex 350.2 75.2 70.4
      vertex 340.4 75.2 70.4
    endloop
  endfacet
  facet normal 0 -1 0
    outer loop
      vertex 350 75.2 35.9
      vertex 350.2 75.2 70.4
      vertex 340.4 75.2 35.9
    endloop
  endfacet
  facet normal 0 -1 0
    outer loop
      vertex 350 75.2 35
      vertex 350.2 75.2 70.4
      vertex 350 75.2 35.9
    endloop
  endfacet
  facet normal 0 -1 0
    outer loop
      vertex 350 75.2 35
      vertex 350.2 75.2 0
      vertex 350.2 75.2 70.4
    endloop
  endfacet
  facet normal 0 -1 0
    outer loop
      vertex 350.2 75.2 0
      vertex 350 75.2 35
      vertex 340.4 75.2 0
    endloop
  endfacet
  facet normal 0 0 -1
    outer loop
      vertex 342.8 30 0
      vertex 347.6 39.8 0
      vertex 347.6 30 0
    endloop
  endfacet
  facet normal -0 0 -1
    outer loop
      vertex 347.6 39.8 0
      vertex 342.8 30 0
      vertex 342.8 39.8 0
    endloop
  endfacet
  facet normal 0 0 -1
    outer loop
      vertex 347.6 30 75.2
      vertex 350.2 4.8 75.2
      vertex 350 4.8 75.2
    endloop
  endfacet
  facet normal 0 0 -1
    outer loop
      vertex 350.2 4.8 75.2
      vertex 347.6 39.8 75.2
      vertex 350.2 75.2 75.2
    endloop
  endfacet
  facet normal 0 0 -1
    outer loop
      vertex 350.2 4.8 75.2
      vertex 347.6 30 75.2
      vertex 347.6 39.8 75.2
    endloop
  endfacet
  facet normal 0 0 -1
    outer loop
      vertex 350 4.8 75.2
      vertex 342.8 30 75.2
      vertex 347.6 30 75.2
    endloop
  endfacet
  facet normal -0 0 -1
    outer loop
      vertex 342.8 30 75.2
      vertex 340.4 4.8 75.2
      vertex 342.8 39.8 75.2
    endloop
  endfacet
  facet normal 0 0 -1
    outer loop
      vertex 340.4 4.8 75.2
      vertex 342.8 30 75.2
      vertex 350 4.8 75.2
    endloop
  endfacet
  facet normal -0 0 -1
    outer loop
      vertex 350.2 75.2 75.2
      vertex 347.6 39.8 75.2
      vertex 350 75.2 75.2
    endloop
  endfacet
  facet normal 0 0 -1
    outer loop
      vertex 342.8 39.8 75.2
      vertex 350 75.2 75.2
      vertex 347.6 39.8 75.2
    endloop
  endfacet
  facet normal 0 0 -1
    outer loop
      vertex 342.8 39.8 75.2
      vertex 340.4 75.2 75.2
      vertex 350 75.2 75.2
    endloop
  endfacet
  facet normal 0 0 -1
    outer loop
      vertex 340.4 75.2 75.2
      vertex 342.8 39.8 75.2
      vertex 340.4 4.8 75.2
    endloop
  endfacet
  facet normal 0 1 -0
    outer loop
      vertex 347.6 39.8 0
      vertex 342.8 39.8 30
      vertex 347.6 39.8 30
    endloop
  endfacet
  facet normal 0 1 0
    outer loop
      vertex 342.8 39.8 30
      vertex 347.6 39.8 0
      vertex 342.8 39.8 0
    endloop
  endfacet
  facet normal 0 1 -0
    outer loop
      vertex 347.6 39.8 34.8
      vertex 342.8 39.8 35
      vertex 347.6 39.8 35
    endloop
  endfacet
  facet normal 0 1 0
    outer loop
      vertex 342.8 39.8 35
      vertex 347.6 39.8 34.8
      vertex 342.8 39.8 34.8
    endloop
  endfacet
  facet normal 0 0 0
    outer loop
      vertex 347.6 39.8 0
      vertex 347.6 39.8 30
      vertex 347.6 39.8 34.8
    endloop
  endfacet
  facet normal 0 0 0
    outer loop
      vertex 347.6 39.8 35
      vertex 347.6 39.8 0
      vertex 347.6 39.8 34.8
    endloop
  endfacet
  facet normal 0 1 -0
    outer loop
      vertex 347.6 39.8 35.9
      vertex 342.8 39.8 75.2
      vertex 347.6 39.8 75.2
    endloop
  endfacet
  facet normal 0 1 0
    outer loop
      vertex 342.8 39.8 75.2
      vertex 347.6 39.8 35.9
      vertex 342.8 39.8 35.9
    endloop
  endfacet
  facet normal -1 0 0
    outer loop
      vertex 342.8 39.8 0
      vertex 342.8 39.6 30
      vertex 342.8 39.8 30
    endloop
  endfacet
  facet normal -1 0 0
    outer loop
      vertex 342.8 30 35
      vertex 342.8 39.6 30
      vertex 342.8 30 0
    endloop
  endfacet
  facet normal -1 0 0
    outer loop
      vertex 342.8 30 0
      vertex 342.8 39.6 30
      vertex 342.8 39.8 0
    endloop
  endfacet
  facet normal -1 0 0
    outer loop
      vertex 342.8 39.6 34.8
      vertex 342.8 39.8 35
      vertex 342.8 39.8 34.8
    endloop
  endfacet
  facet normal -1 0 0
    outer loop
      vertex 342.8 39.6 34.8
      vertex 342.8 30 35
      vertex 342.8 39.8 35
    endloop
  endfacet
  facet normal -1 0 0
    outer loop
      vertex 342.8 39.6 30
      vertex 342.8 30 35
      vertex 342.8 39.6 34.8
    endloop
  endfacet
  facet normal -1 0 0
    outer loop
      vertex 342.8 39.8 35.9
      vertex 342.8 33.3941 43.7941
      vertex 342.8 39.8 75.2
    endloop
  endfacet
  facet normal -1 0 0
    outer loop
      vertex 342.8 30 40.4
      vertex 342.8 39.8 35.9
      vertex 342.8 30 35.9
    endloop
  endfacet
  facet normal -1 0 0
    outer loop
      vertex 342.8 39.8 35.9
      vertex 342.8 30 40.4
      vertex 342.8 33.3941 43.7941
    endloop
  endfacet
  facet normal -1 0 0
    outer loop
      vertex 342.8 30 47.1882
      vertex 342.8 39.8 75.2
      vertex 342.8 33.3941 43.7941
    endloop
  endfacet
  facet normal -1 -0 0
    outer loop
      vertex 342.8 39.8 75.2
      vertex 342.8 30 47.1882
      vertex 342.8 30 75.2
    endloop
  endfacet
  facet normal 1 -0 0
    outer loop
      vertex 347.6 30 35
      vertex 347.6 39.8 0
      vertex 347.6 39.8 35
    endloop
  endfacet
  facet normal 1 0 0
    outer loop
      vertex 347.6 39.8 0
      vertex 347.6 30 35
      vertex 347.6 30 0
    endloop
  endfacet
  facet normal 1 -0 0
    outer loop
      vertex 347.6 30 75.2
      vertex 347.6 39.8 35.9
      vertex 347.6 39.8 75.2
    endloop
  endfacet
  facet normal 1 0 0
    outer loop
      vertex 347.6 39.8 35.9
      vertex 347.6 30 75.2
      vertex 347.6 30 35.9
    endloop
  endfacet
  facet normal 1 -0 0
    outer loop
      vertex 9.8 4.8 80
      vertex 9.8 75.2 75.2
      vertex 9.8 75.2 80
    endloop
  endfacet
  facet normal 1 0 0
    outer loop
      vertex 9.8 75.2 75.2
      vertex 9.8 4.8 80
      vertex 9.8 4.8 75.2
    endloop
  endfacet
  facet normal 1 -0 0
    outer loop
      vertex 94.9 4.8 80
      vertex 94.9 75.2 75.2
      vertex 94.9 75.2 80
    endloop
  endfacet
  facet normal 1 0 0
    outer loop
      vertex 94.9 75.2 75.2
      vertex 94.9 4.8 80
      vertex 94.9 4.8 75.2
    endloop
  endfacet
  facet normal -1 0 0
    outer loop
      vertex 85.1 4.8 75.2
      vertex 85.1 75.2 80
      vertex 85.1 75.2 75.2
    endloop
  endfacet
  facet normal -1 -0 0
    outer loop
      vertex 85.1 75.2 80
      vertex 85.1 4.8 75.2
      vertex 85.1 4.8 80
    endloop
  endfacet
  facet normal 1 -0 0
    outer loop
      vertex 180 4.8 80
      vertex 180 75.2 75.2
      vertex 180 75.2 80
    endloop
  endfacet
  facet normal 1 0 0
    outer loop
      vertex 180 75.2 75.2
      vertex 180 4.8 80
      vertex 180 4.8 75.2
    endloop
  endfacet
  facet normal -1 0 0
    outer loop
      vertex 170.2 4.8 75.2
      vertex 170.2 75.2 80
      vertex 170.2 75.2 75.2
    endloop
  endfacet
  facet normal -1 -0 0
    outer loop
      vertex 170.2 75.2 80
      vertex 170.2 4.8 75.2
      vertex 170.2 4.8 80
    endloop
  endfacet
  facet normal 1 -0 0
    outer loop
      vertex 265.1 4.8 80
      vertex 265.1 75.2 75.2
      vertex 265.1 75.2 80
    endloop
  endfacet
  facet normal 1 0 0
    outer loop
      vertex 265.1 75.2 75.2
      vertex 265.1 4.8 80
      vertex 265.1 4.8 75.2
    endloop
  endfacet
  facet normal -1 0 0
    outer loop
      vertex 255.3 4.8 75.2
      vertex 255.3 75.2 80
      vertex 255.3 75.2 75.2
    endloop
  endfacet
  facet normal -1 -0 0
    outer loop
      vertex 255.3 75.2 80
      vertex 255.3 4.8 75.2
      vertex 255.3 4.8 80
    endloop
  endfacet
  facet normal 1 -0 0
    outer loop
      vertex 350.2 4.8 80
      vertex 350.2 75.2 75.2
      vertex 350.2 75.2 80
    endloop
  endfacet
  facet normal 1 0 0
    outer loop
      vertex 350.2 75.2 75.2
      vertex 350.2 4.8 80
      vertex 350.2 4.8 75.2
    endloop
  endfacet
  facet normal -1 0 0
    outer loop
      vertex 340.4 4.8 75.2
      vertex 340.4 75.2 80
      vertex 340.4 75.2 75.2
    endloop
  endfacet
  facet normal -1 -0 0
    outer loop
      vertex 340.4 75.2 80
      vertex 340.4 4.8 75.2
      vertex 340.4 4.8 80
    endloop
  endfacet
  facet normal 0 0 1
    outer loop
      vertex 85.1 80 35.9
      vertex 9.8 80 35.9
      vertex 85.1 75.2 35.9
    endloop
  endfacet
  facet normal 0 0 1
    outer loop
      vertex 170.2 80 35.9
      vertex 94.9 80 35.9
      vertex 170.2 75.2 35.9
    endloop
  endfacet
  facet normal 0 0 1
    outer loop
      vertex 255.3 80 35.9
      vertex 180 80 35.9
      vertex 255.3 75.2 35.9
    endloop
  endfacet
  facet normal 0 0 1
    outer loop
      vertex 340.4 80 35.9
      vertex 265.1 80 35.9
      vertex 340.4 75.2 35.9
    endloop
  endfacet
  facet normal 0 0 1
    outer loop
      vertex 350 75.2 35.9
      vertex 347.6 39.8 35.9
      vertex 350 30 35.9
    endloop
  endfacet
  facet normal 0 0 1
    outer loop
      vertex 350 75.2 35.9
      vertex 342.8 39.8 35.9
      vertex 347.6 39.8 35.9
    endloop
  endfacet
  facet normal -0 0 1
    outer loop
      vertex 340.4 75.2 35.9
      vertex 342.8 39.8 35.9
      vertex 350 75.2 35.9
    endloop
  endfacet
  facet normal 0 0 1
    outer loop
      vertex 262.5 39.8 35.9
      vertex 342.8 39.8 35.9
      vertex 340.4 75.2 35.9
    endloop
  endfacet
  facet normal 0 0 1
    outer loop
      vertex 265.1 75.2 35.9
      vertex 340.4 75.2 35.9
      vertex 265.1 80 35.9
    endloop
  endfacet
  facet normal 0 0 1
    outer loop
      vertex 262.5 39.8 35.9
      vertex 340.4 75.2 35.9
      vertex 265.1 75.2 35.9
    endloop
  endfacet
  facet normal 0 0 1
    outer loop
      vertex 342.8 39.8 35.9
      vertex 262.5 39.8 35.9
      vertex 342.8 30 35.9
    endloop
  endfacet
  facet normal 0 0 1
    outer loop
      vertex 342.8 30 35.9
      vertex 262.5 39.8 35.9
      vertex 262.5 30 35.9
    endloop
  endfacet
  facet normal 0 0 1
    outer loop
      vertex 350 30 35.9
      vertex 347.6 39.8 35.9
      vertex 347.6 30 35.9
    endloop
  endfacet
  facet normal 0 0 1
    outer loop
      vertex 265.1 75.2 35.9
      vertex 257.7 39.8 35.9
      vertex 262.5 39.8 35.9
    endloop
  endfacet
  facet normal -0 0 1
    outer loop
      vertex 255.3 75.2 35.9
      vertex 257.7 39.8 35.9
      vertex 265.1 75.2 35.9
    endloop
  endfacet
  facet normal 0 0 1
    outer loop
      vertex 177.4 39.8 35.9
      vertex 257.7 39.8 35.9
      vertex 255.3 75.2 35.9
    endloop
  endfacet
  facet normal 0 0 1
    outer loop
      vertex 180 75.2 35.9
      vertex 255.3 75.2 35.9
      vertex 180 80 35.9
    endloop
  endfacet
  facet normal 0 0 1
    outer loop
      vertex 177.4 39.8 35.9
      vertex 255.3 75.2 35.9
      vertex 180 75.2 35.9
    endloop
  endfacet
  facet normal 0 0 1
    outer loop
      vertex 257.7 39.8 35.9
      vertex 177.4 39.8 35.9
      vertex 257.7 30 35.9
    endloop
  endfacet
  facet normal 0 0 1
    outer loop
      vertex 257.7 30 35.9
      vertex 177.4 39.8 35.9
      vertex 177.4 30 35.9
    endloop
  endfacet
  facet normal 0 0 1
    outer loop
      vertex 180 75.2 35.9
      vertex 172.6 39.8 35.9
      vertex 177.4 39.8 35.9
    endloop
  endfacet
  facet normal -0 0 1
    outer loop
      vertex 170.2 75.2 35.9
      vertex 172.6 39.8 35.9
      vertex 180 75.2 35.9
    endloop
  endfacet
  facet normal 0 0 1
    outer loop
      vertex 92.3 39.8 35.9
      vertex 172.6 39.8 35.9
      vertex 170.2 75.2 35.9
    endloop
  endfacet
  facet normal 0 0 1
    outer loop
      vertex 94.9 75.2 35.9
      vertex 170.2 75.2 35.9
      vertex 94.9 80 35.9
    endloop
  endfacet
  facet normal 0 0 1
    outer loop
      vertex 92.3 39.8 35.9
      vertex 170.2 75.2 35.9
      vertex 94.9 75.2 35.9
    endloop
  endfacet
  facet normal 0 0 1
    outer loop
      vertex 172.6 39.8 35.9
      vertex 92.3 39.8 35.9
      vertex 172.6 30 35.9
    endloop
  endfacet
  facet normal 0 0 1
    outer loop
      vertex 172.6 30 35.9
      vertex 92.3 39.8 35.9
      vertex 92.3 30 35.9
    endloop
  endfacet
  facet normal 0 0 1
    outer loop
      vertex 94.9 75.2 35.9
      vertex 87.5 39.8 35.9
      vertex 92.3 39.8 35.9
    endloop
  endfacet
  facet normal -0 0 1
    outer loop
      vertex 85.1 75.2 35.9
      vertex 87.5 39.8 35.9
      vertex 94.9 75.2 35.9
    endloop
  endfacet
  facet normal 0 0 1
    outer loop
      vertex 7.2 39.8 35.9
      vertex 87.5 39.8 35.9
      vertex 85.1 75.2 35.9
    endloop
  endfacet
  facet normal 0 0 1
    outer loop
      vertex 9.8 75.2 35.9
      vertex 85.1 75.2 35.9
      vertex 9.8 80 35.9
    endloop
  endfacet
  facet normal 0 0 1
    outer loop
      vertex 7.2 39.8 35.9
      vertex 85.1 75.2 35.9
      vertex 9.8 75.2 35.9
    endloop
  endfacet
  facet normal 0 0 1
    outer loop
      vertex 87.5 39.8 35.9
      vertex 7.2 39.8 35.9
      vertex 87.5 30 35.9
    endloop
  endfacet
  facet normal 0 0 1
    outer loop
      vertex 87.5 30 35.9
      vertex 7.2 39.8 35.9
      vertex 7.2 30 35.9
    endloop
  endfacet
  facet normal 0 0 1
    outer loop
      vertex 9.8 75.2 35.9
      vertex 2.4 39.8 35.9
      vertex 7.2 39.8 35.9
    endloop
  endfacet
  facet normal -0 0 1
    outer loop
      vertex 0 75.2 35.9
      vertex 2.4 39.8 35.9
      vertex 9.8 75.2 35.9
    endloop
  endfacet
  facet normal 0 0 1
    outer loop
      vertex 0 30 35.9
      vertex 2.4 39.8 35.9
      vertex 0 75.2 35.9
    endloop
  endfacet
  facet normal 0 0 1
    outer loop
      vertex 2.4 39.8 35.9
      vertex 0 30 35.9
      vertex 2.4 30 35.9
    endloop
  endfacet
  facet normal 0 0 -1
    outer loop
      vertex 2.4 30 35
      vertex 0 30 35
      vertex 2.4 39.8 35
    endloop
  endfacet
  facet normal 0 0 -1
    outer loop
      vertex 7.2 39.8 35
      vertex 87.5 39.8 35
      vertex 87.5 30 35
    endloop
  endfacet
  facet normal 0 0 -1
    outer loop
      vertex 85.1 75.2 35
      vertex 9.8 75.2 35
      vertex 85.1 80 35
    endloop
  endfacet
  facet normal 0 0 -1
    outer loop
      vertex 87.5 39.8 35
      vertex 7.2 39.8 35
      vertex 85.1 75.2 35
    endloop
  endfacet
  facet normal 0 0 -1
    outer loop
      vertex 7.2 39.8 35
      vertex 87.5 30 35
      vertex 7.2 30 35
    endloop
  endfacet
  facet normal -0 0 -1
    outer loop
      vertex 85.1 75.2 35
      vertex 7.2 39.8 35
      vertex 9.8 75.2 35
    endloop
  endfacet
  facet normal 0 0 -1
    outer loop
      vertex 2.4 39.8 35
      vertex 9.8 75.2 35
      vertex 7.2 39.8 35
    endloop
  endfacet
  facet normal 0 0 -1
    outer loop
      vertex 0 75.2 35
      vertex 2.4 39.8 35
      vertex 0 30 35
    endloop
  endfacet
  facet normal 0 0 -1
    outer loop
      vertex 2.4 39.8 35
      vertex 0 75.2 35
      vertex 9.8 75.2 35
    endloop
  endfacet
  facet normal 0 0 -1
    outer loop
      vertex 92.3 39.8 35
      vertex 172.6 39.8 35
      vertex 172.6 30 35
    endloop
  endfacet
  facet normal 0 0 -1
    outer loop
      vertex 170.2 75.2 35
      vertex 94.9 75.2 35
      vertex 170.2 80 35
    endloop
  endfacet
  facet normal 0 0 -1
    outer loop
      vertex 172.6 39.8 35
      vertex 92.3 39.8 35
      vertex 170.2 75.2 35
    endloop
  endfacet
  facet normal 0 0 -1
    outer loop
      vertex 92.3 39.8 35
      vertex 172.6 30 35
      vertex 92.3 30 35
    endloop
  endfacet
  facet normal -0 0 -1
    outer loop
      vertex 170.2 75.2 35
      vertex 92.3 39.8 35
      vertex 94.9 75.2 35
    endloop
  endfacet
  facet normal 0 0 -1
    outer loop
      vertex 87.5 39.8 35
      vertex 94.9 75.2 35
      vertex 92.3 39.8 35
    endloop
  endfacet
  facet normal -0 0 -1
    outer loop
      vertex 94.9 75.2 35
      vertex 87.5 39.8 35
      vertex 85.1 75.2 35
    endloop
  endfacet
  facet normal 0 0 -1
    outer loop
      vertex 177.4 39.8 35
      vertex 257.7 39.8 35
      vertex 257.7 30 35
    endloop
  endfacet
  facet normal 0 0 -1
    outer loop
      vertex 255.3 75.2 35
      vertex 180 75.2 35
      vertex 255.3 80 35
    endloop
  endfacet
  facet normal 0 0 -1
    outer loop
      vertex 257.7 39.8 35
      vertex 177.4 39.8 35
      vertex 255.3 75.2 35
    endloop
  endfacet
  facet normal 0 0 -1
    outer loop
      vertex 177.4 39.8 35
      vertex 257.7 30 35
      vertex 177.4 30 35
    endloop
  endfacet
  facet normal -0 0 -1
    outer loop
      vertex 255.3 75.2 35
      vertex 177.4 39.8 35
      vertex 180 75.2 35
    endloop
  endfacet
  facet normal 0 0 -1
    outer loop
      vertex 172.6 39.8 35
      vertex 180 75.2 35
      vertex 177.4 39.8 35
    endloop
  endfacet
  facet normal -0 0 -1
    outer loop
      vertex 180 75.2 35
      vertex 172.6 39.8 35
      vertex 170.2 75.2 35
    endloop
  endfacet
  facet normal 0 0 -1
    outer loop
      vertex 262.5 39.8 35
      vertex 342.8 39.8 35
      vertex 342.8 30 35
    endloop
  endfacet
  facet normal 0 0 -1
    outer loop
      vertex 340.4 75.2 35
      vertex 265.1 75.2 35
      vertex 340.4 80 35
    endloop
  endfacet
  facet normal 0 0 -1
    outer loop
      vertex 342.8 39.8 35
      vertex 262.5 39.8 35
      vertex 340.4 75.2 35
    endloop
  endfacet
  facet normal 0 0 -1
    outer loop
      vertex 262.5 39.8 35
      vertex 342.8 30 35
      vertex 262.5 30 35
    endloop
  endfacet
  facet normal -0 0 -1
    outer loop
      vertex 340.4 75.2 35
      vertex 262.5 39.8 35
      vertex 265.1 75.2 35
    endloop
  endfacet
  facet normal 0 0 -1
    outer loop
      vertex 257.7 39.8 35
      vertex 265.1 75.2 35
      vertex 262.5 39.8 35
    endloop
  endfacet
  facet normal -0 0 -1
    outer loop
      vertex 265.1 75.2 35
      vertex 257.7 39.8 35
      vertex 255.3 75.2 35
    endloop
  endfacet
  facet normal 0 0 -1
    outer loop
      vertex 347.6 39.8 35
      vertex 350 30 35
      vertex 347.6 30 35
    endloop
  endfacet
  facet normal 0 0 -1
    outer loop
      vertex 350 30 35
      vertex 347.6 39.8 35
      vertex 350 75.2 35
    endloop
  endfacet
  facet normal 0 0 -1
    outer loop
      vertex 342.8 39.8 35
      vertex 350 75.2 35
      vertex 347.6 39.8 35
    endloop
  endfacet
  facet normal -0 0 -1
    outer loop
      vertex 350 75.2 35
      vertex 342.8 39.8 35
      vertex 340.4 75.2 35
    endloop
  endfacet
  facet normal -0 0 -1
    outer loop
      vertex 340.4 80 35
      vertex 265.1 75.2 35
      vertex 265.1 80 35
    endloop
  endfacet
  facet normal -0 0 -1
    outer loop
      vertex 255.3 80 35
      vertex 180 75.2 35
      vertex 180 80 35
    endloop
  endfacet
  facet normal -0 0 -1
    outer loop
      vertex 170.2 80 35
      vertex 94.9 75.2 35
      vertex 94.9 80 35
    endloop
  endfacet
  facet normal -0 0 -1
    outer loop
      vertex 85.1 80 35
      vertex 9.8 75.2 35
      vertex 9.8 80 35
    endloop
  endfacet
  facet normal 1 -0 0
    outer loop
      vertex 350 30 35.9
      vertex 350 75.2 35
      vertex 350 75.2 35.9
    endloop
  endfacet
  facet normal 1 0 0
    outer loop
      vertex 350 75.2 35
      vertex 350 30 35.9
      vertex 350 30 35
    endloop
  endfacet
  facet normal 0 1 -0
    outer loop
      vertex 7.2 75.2 30
      vertex 2.4 75.2 34.8
      vertex 7.2 75.2 34.8
    endloop
  endfacet
  facet normal 0 1 0
    outer loop
      vertex 2.4 75.2 34.8
      vertex 7.2 75.2 30
      vertex 2.4 75.2 30
    endloop
  endfacet
  facet normal -0 0 1
    outer loop
      vertex 2.4 75.2 34.8
      vertex 7.2 39.8 34.8
      vertex 7.2 75.2 34.8
    endloop
  endfacet
  facet normal 0 0 1
    outer loop
      vertex 7.2 39.8 34.8
      vertex 2.4 75.2 34.8
      vertex 2.4 39.8 34.8
    endloop
  endfacet
  facet normal 0 0 -1
    outer loop
      vertex 2.4 39.8 30
      vertex 7.2 75.2 30
      vertex 7.2 39.8 30
    endloop
  endfacet
  facet normal -0 0 -1
    outer loop
      vertex 7.2 75.2 30
      vertex 2.4 39.8 30
      vertex 2.4 75.2 30
    endloop
  endfacet
  facet normal 0 1 -0
    outer loop
      vertex 92.3 75.2 30
      vertex 87.5 75.2 34.8
      vertex 92.3 75.2 34.8
    endloop
  endfacet
  facet normal 0 1 0
    outer loop
      vertex 87.5 75.2 34.8
      vertex 92.3 75.2 30
      vertex 87.5 75.2 30
    endloop
  endfacet
  facet normal 1 -0 0
    outer loop
      vertex 92.3 39.8 34.8
      vertex 92.3 75.2 30
      vertex 92.3 75.2 34.8
    endloop
  endfacet
  facet normal 1 0 0
    outer loop
      vertex 92.3 75.2 30
      vertex 92.3 39.8 34.8
      vertex 92.3 39.8 30
    endloop
  endfacet
  facet normal -1 0 0
    outer loop
      vertex 87.5 39.8 30
      vertex 87.5 75.2 34.8
      vertex 87.5 75.2 30
    endloop
  endfacet
  facet normal -1 -0 0
    outer loop
      vertex 87.5 75.2 34.8
      vertex 87.5 39.8 30
      vertex 87.5 39.8 34.8
    endloop
  endfacet
  facet normal -0 0 1
    outer loop
      vertex 87.5 75.2 34.8
      vertex 92.3 39.8 34.8
      vertex 92.3 75.2 34.8
    endloop
  endfacet
  facet normal 0 0 1
    outer loop
      vertex 92.3 39.8 34.8
      vertex 87.5 75.2 34.8
      vertex 87.5 39.8 34.8
    endloop
  endfacet
  facet normal 0 0 -1
    outer loop
      vertex 87.5 39.8 30
      vertex 92.3 75.2 30
      vertex 92.3 39.8 30
    endloop
  endfacet
  facet normal -0 0 -1
    outer loop
      vertex 92.3 75.2 30
      vertex 87.5 39.8 30
      vertex 87.5 75.2 30
    endloop
  endfacet
  facet normal 0 1 -0
    outer loop
      vertex 177.4 75.2 30
      vertex 172.6 75.2 34.8
      vertex 177.4 75.2 34.8
    endloop
  endfacet
  facet normal 0 1 0
    outer loop
      vertex 172.6 75.2 34.8
      vertex 177.4 75.2 30
      vertex 172.6 75.2 30
    endloop
  endfacet
  facet normal 1 -0 0
    outer loop
      vertex 177.4 39.8 34.8
      vertex 177.4 75.2 30
      vertex 177.4 75.2 34.8
    endloop
  endfacet
  facet normal 1 0 0
    outer loop
      vertex 177.4 75.2 30
      vertex 177.4 39.8 34.8
      vertex 177.4 39.8 30
    endloop
  endfacet
  facet normal -1 0 0
    outer loop
      vertex 172.6 39.6 30
      vertex 172.6 75.2 34.8
      vertex 172.6 75.2 30
    endloop
  endfacet
  facet normal -1 -0 0
    outer loop
      vertex 172.6 75.2 34.8
      vertex 172.6 39.6 30
      vertex 172.6 39.6 34.8
    endloop
  endfacet
  facet normal -0 0 1
    outer loop
      vertex 172.6 75.2 34.8
      vertex 177.4 39.8 34.8
      vertex 177.4 75.2 34.8
    endloop
  endfacet
  facet normal 0 0 1
    outer loop
      vertex 177.4 39.8 34.8
      vertex 172.6 75.2 34.8
      vertex 172.6 39.8 34.8
    endloop
  endfacet
  facet normal 0 0 -0
    outer loop
      vertex 172.6 39.8 34.8
      vertex 172.6 75.2 34.8
      vertex 172.6 39.6 34.8
    endloop
  endfacet
  facet normal 0 0 -1
    outer loop
      vertex 172.6 39.8 30
      vertex 177.4 75.2 30
      vertex 177.4 39.8 30
    endloop
  endfacet
  facet normal -0 0 -1
    outer loop
      vertex 177.4 75.2 30
      vertex 172.6 39.8 30
      vertex 172.6 75.2 30
    endloop
  endfacet
  facet normal 0 0 0
    outer loop
      vertex 172.6 75.2 30
      vertex 172.6 39.8 30
      vertex 172.6 39.6 30
    endloop
  endfacet
  facet normal 0 1 -0
    outer loop
      vertex 262.5 75.2 30
      vertex 257.7 75.2 34.8
      vertex 262.5 75.2 34.8
    endloop
  endfacet
  facet normal 0 1 0
    outer loop
      vertex 257.7 75.2 34.8
      vertex 262.5 75.2 30
      vertex 257.7 75.2 30
    endloop
  endfacet
  facet normal 1 -0 0
    outer loop
      vertex 262.5 39.6 34.8
      vertex 262.5 75.2 30
      vertex 262.5 75.2 34.8
    endloop
  endfacet
  facet normal 1 0 0
    outer loop
      vertex 262.5 75.2 30
      vertex 262.5 39.6 34.8
      vertex 262.5 39.6 30
    endloop
  endfacet
  facet normal -1 0 0
    outer loop
      vertex 257.7 39.8 30
      vertex 257.7 75.2 34.8
      vertex 257.7 75.2 30
    endloop
  endfacet
  facet normal -1 -0 0
    outer loop
      vertex 257.7 75.2 34.8
      vertex 257.7 39.8 30
      vertex 257.7 39.8 34.8
    endloop
  endfacet
  facet normal -0 0 1
    outer loop
      vertex 257.7 75.2 34.8
      vertex 262.5 39.8 34.8
      vertex 262.5 75.2 34.8
    endloop
  endfacet
  facet normal 0 0 1
    outer loop
      vertex 262.5 39.8 34.8
      vertex 257.7 75.2 34.8
      vertex 257.7 39.8 34.8
    endloop
  endfacet
  facet normal -0 0 0
    outer loop
      vertex 262.5 39.8 34.8
      vertex 262.5 39.6 34.8
      vertex 262.5 75.2 34.8
    endloop
  endfacet
  facet normal 0 0 -1
    outer loop
      vertex 257.7 39.8 30
      vertex 262.5 75.2 30
      vertex 262.5 39.8 30
    endloop
  endfacet
  facet normal -0 0 -1
    outer loop
      vertex 262.5 75.2 30
      vertex 257.7 39.8 30
      vertex 257.7 75.2 30
    endloop
  endfacet
  facet normal 0 0 0
    outer loop
      vertex 262.5 75.2 30
      vertex 262.5 39.6 30
      vertex 262.5 39.8 30
    endloop
  endfacet
  facet normal 0 1 -0
    outer loop
      vertex 347.6 75.2 30
      vertex 342.8 75.2 34.8
      vertex 347.6 75.2 34.8
    endloop
  endfacet
  facet normal 0 1 0
    outer loop
      vertex 342.8 75.2 34.8
      vertex 347.6 75.2 30
      vertex 342.8 75.2 30
    endloop
  endfacet
  facet normal 1 -0 0
    outer loop
      vertex 347.6 39.8 34.8
      vertex 347.6 75.2 30
      vertex 347.6 75.2 34.8
    endloop
  endfacet
  facet normal 1 0 0
    outer loop
      vertex 347.6 75.2 30
      vertex 347.6 39.8 34.8
      vertex 347.6 39.8 30
    endloop
  endfacet
  facet normal -1 0 0
    outer loop
      vertex 342.8 39.6 30
      vertex 342.8 75.2 34.8
      vertex 342.8 75.2 30
    endloop
  endfacet
  facet normal -1 -0 0
    outer loop
      vertex 342.8 75.2 34.8
      vertex 342.8 39.6 30
      vertex 342.8 39.6 34.8
    endloop
  endfacet
  facet normal -0 0 1
    outer loop
      vertex 342.8 75.2 34.8
      vertex 347.6 39.8 34.8
      vertex 347.6 75.2 34.8
    endloop
  endfacet
  facet normal 0 0 1
    outer loop
      vertex 347.6 39.8 34.8
      vertex 342.8 75.2 34.8
      vertex 342.8 39.8 34.8
    endloop
  endfacet
  facet normal 0 0 -0
    outer loop
      vertex 342.8 39.8 34.8
      vertex 342.8 75.2 34.8
      vertex 342.8 39.6 34.8
    endloop
  endfacet
  facet normal 0 0 -1
    outer loop
      vertex 342.8 39.8 30
      vertex 347.6 75.2 30
      vertex 347.6 39.8 30
    endloop
  endfacet
  facet normal -0 0 -1
    outer loop
      vertex 347.6 75.2 30
      vertex 342.8 39.8 30
      vertex 342.8 75.2 30
    endloop
  endfacet
  facet normal 0 0 0
    outer loop
      vertex 342.8 75.2 30
      vertex 342.8 39.8 30
      vertex 342.8 39.6 30
    endloop
  endfacet
  facet normal -0 0.707107 0.707107
    outer loop
      vertex 2.4 30 47.1882
      vertex 7.2 4.8 72.3882
      vertex 7.2 30 47.1882
    endloop
  endfacet
  facet normal 0 0.707107 0.707107
    outer loop
      vertex 7.2 4.8 72.3882
      vertex 2.4 30 47.1882
      vertex 2.4 4.8 72.3882
    endloop
  endfacet
  facet normal -0 0 1
    outer loop
      vertex 2.4 3.8147e-07 70.4
      vertex 7.2 0 70.4
      vertex 7.2 3.8147e-07 70.4
    endloop
  endfacet
  facet normal 0 0 1
    outer loop
      vertex 7.2 0 70.4
      vertex 2.4 3.8147e-07 70.4
      vertex 2.4 0 70.4
    endloop
  endfacet
  facet normal 0 -0.707107 -0.707107
    outer loop
      vertex 2.4 30 40.4
      vertex 7.2 0 70.4
      vertex 2.4 0 70.4
    endloop
  endfacet
  facet normal 0 -0.707107 -0.707107
    outer loop
      vertex 7.2 0 70.4
      vertex 2.4 30 40.4
      vertex 7.2 30 40.4
    endloop
  endfacet
  facet normal -0 0.707107 0.707107
    outer loop
      vertex 87.5 30 47.1882
      vertex 92.3 4.8 72.3882
      vertex 92.3 30 47.1882
    endloop
  endfacet
  facet normal 0 0.707107 0.707107
    outer loop
      vertex 92.3 4.8 72.3882
      vertex 87.5 30 47.1882
      vertex 87.5 4.8 72.3882
    endloop
  endfacet
  facet normal -0 0 1
    outer loop
      vertex 87.5 3.8147e-07 70.4
      vertex 92.3 0 70.4
      vertex 92.3 3.8147e-07 70.4
    endloop
  endfacet
  facet normal 0 0 1
    outer loop
      vertex 92.3 0 70.4
      vertex 87.5 3.8147e-07 70.4
      vertex 87.5 0 70.4
    endloop
  endfacet
  facet normal -1 0 0
    outer loop
      vertex 87.5 30 40.4
      vertex 87.5 4.8 70.4
      vertex 87.5 30 47.1882
    endloop
  endfacet
  facet normal -1 0 0
    outer loop
      vertex 87.5 30 40.4
      vertex 87.5 3.8147e-07 70.4
      vertex 87.5 4.8 70.4
    endloop
  endfacet
  facet normal -1 -0 -0
    outer loop
      vertex 87.5 3.8147e-07 70.4
      vertex 87.5 30 40.4
      vertex 87.5 0 70.4
    endloop
  endfacet
  facet normal -1 0 0
    outer loop
      vertex 87.5 30 47.1882
      vertex 87.5 4.8 70.4
      vertex 87.5 4.8 72.3882
    endloop
  endfacet
  facet normal 0 -0.707107 -0.707107
    outer loop
      vertex 87.5 30 40.4
      vertex 92.3 0 70.4
      vertex 87.5 0 70.4
    endloop
  endfacet
  facet normal 0 -0.707107 -0.707107
    outer loop
      vertex 92.3 0 70.4
      vertex 87.5 30 40.4
      vertex 92.3 30 40.4
    endloop
  endfacet
  facet normal 1 -0 0
    outer loop
      vertex 92.3 4.8 70.4
      vertex 92.3 30 47.1882
      vertex 92.3 4.8 72.3882
    endloop
  endfacet
  facet normal 1 0 0
    outer loop
      vertex 92.3 30 47.1882
      vertex 92.3 4.8 70.4
      vertex 92.3 30 40.4
    endloop
  endfacet
  facet normal 1 -0 0
    outer loop
      vertex 92.3 3.8147e-07 70.4
      vertex 92.3 30 40.4
      vertex 92.3 4.8 70.4
    endloop
  endfacet
  facet normal 1 0 0
    outer loop
      vertex 92.3 30 40.4
      vertex 92.3 3.8147e-07 70.4
      vertex 92.3 0 70.4
    endloop
  endfacet
  facet normal -0 0.707107 0.707107
    outer loop
      vertex 172.6 30 47.1882
      vertex 177.4 4.8 72.3882
      vertex 177.4 30 47.1882
    endloop
  endfacet
  facet normal 0 0.707107 0.707107
    outer loop
      vertex 177.4 4.8 72.3882
      vertex 172.6 30 47.1882
      vertex 172.6 4.8 72.3882
    endloop
  endfacet
  facet normal 0 0 0
    outer loop
      vertex 172.6 4.8 72.3882
      vertex 172.6 30 47.1882
      vertex 172.6 33.3941 43.7941
    endloop
  endfacet
  facet normal -0 0 1
    outer loop
      vertex 172.6 3.8147e-07 70.4
      vertex 177.4 0 70.4
      vertex 177.4 3.8147e-07 70.4
    endloop
  endfacet
  facet normal 0 0 1
    outer loop
      vertex 177.4 0 70.4
      vertex 172.6 3.8147e-07 70.4
      vertex 172.6 0 70.4
    endloop
  endfacet
  facet normal -1 0 0
    outer loop
      vertex 172.6 30 40.4
      vertex 172.6 3.8147e-07 70.4
      vertex 172.6 4.8 70.4
    endloop
  endfacet
  facet normal -1 -0 -0
    outer loop
      vertex 172.6 3.8147e-07 70.4
      vertex 172.6 30 40.4
      vertex 172.6 0 70.4
    endloop
  endfacet
  facet normal -1 0 0
    outer loop
      vertex 172.6 4.8 70.4
      vertex 172.6 33.3941 43.7941
      vertex 172.6 30 40.4
    endloop
  endfacet
  facet normal -1 0 0
    outer loop
      vertex 172.6 33.3941 43.7941
      vertex 172.6 4.8 70.4
      vertex 172.6 4.8 72.3882
    endloop
  endfacet
  facet normal 0 -0.707107 -0.707107
    outer loop
      vertex 172.6 30 40.4
      vertex 177.4 0 70.4
      vertex 172.6 0 70.4
    endloop
  endfacet
  facet normal 0 -0.707107 -0.707107
    outer loop
      vertex 177.4 0 70.4
      vertex 172.6 30 40.4
      vertex 177.4 30 40.4
    endloop
  endfacet
  facet normal 1 -0 0
    outer loop
      vertex 177.4 4.8 70.4
      vertex 177.4 30 47.1882
      vertex 177.4 4.8 72.3882
    endloop
  endfacet
  facet normal 1 0 0
    outer loop
      vertex 177.4 30 47.1882
      vertex 177.4 4.8 70.4
      vertex 177.4 30 40.4
    endloop
  endfacet
  facet normal 1 -0 0
    outer loop
      vertex 177.4 3.8147e-07 70.4
      vertex 177.4 30 40.4
      vertex 177.4 4.8 70.4
    endloop
  endfacet
  facet normal 1 0 0
    outer loop
      vertex 177.4 30 40.4
      vertex 177.4 3.8147e-07 70.4
      vertex 177.4 0 70.4
    endloop
  endfacet
  facet normal -0 0.707107 0.707107
    outer loop
      vertex 257.7 30 47.1882
      vertex 262.5 4.8 72.3882
      vertex 262.5 30 47.1882
    endloop
  endfacet
  facet normal 0 0.707107 0.707107
    outer loop
      vertex 262.5 4.8 72.3882
      vertex 257.7 30 47.1882
      vertex 257.7 4.8 72.3882
    endloop
  endfacet
  facet normal 1 0 0
    outer loop
      vertex 262.5 30 47.1882
      vertex 262.5 4.8 72.3882
      vertex 262.5 33.3941 43.7941
    endloop
  endfacet
  facet normal -0 0 1
    outer loop
      vertex 257.7 3.8147e-07 70.4
      vertex 262.5 0 70.4
      vertex 262.5 3.8147e-07 70.4
    endloop
  endfacet
  facet normal 0 0 1
    outer loop
      vertex 262.5 0 70.4
      vertex 257.7 3.8147e-07 70.4
      vertex 257.7 0 70.4
    endloop
  endfacet
  facet normal -1 0 0
    outer loop
      vertex 257.7 30 40.4
      vertex 257.7 4.8 70.4
      vertex 257.7 30 47.1882
    endloop
  endfacet
  facet normal -1 0 0
    outer loop
      vertex 257.7 30 40.4
      vertex 257.7 3.8147e-07 70.4
      vertex 257.7 4.8 70.4
    endloop
  endfacet
  facet normal -1 -0 -0
    outer loop
      vertex 257.7 3.8147e-07 70.4
      vertex 257.7 30 40.4
      vertex 257.7 0 70.4
    endloop
  endfacet
  facet normal -1 0 0
    outer loop
      vertex 257.7 30 47.1882
      vertex 257.7 4.8 70.4
      vertex 257.7 4.8 72.3882
    endloop
  endfacet
  facet normal 0 -0.707107 -0.707107
    outer loop
      vertex 257.7 30 40.4
      vertex 262.5 0 70.4
      vertex 257.7 0 70.4
    endloop
  endfacet
  facet normal 0 -0.707107 -0.707107
    outer loop
      vertex 262.5 0 70.4
      vertex 257.7 30 40.4
      vertex 262.5 30 40.4
    endloop
  endfacet
  facet normal 1 -0 0
    outer loop
      vertex 262.5 4.8 70.4
      vertex 262.5 33.3941 43.7941
      vertex 262.5 4.8 72.3882
    endloop
  endfacet
  facet normal 1 0 0
    outer loop
      vertex 262.5 33.3941 43.7941
      vertex 262.5 4.8 70.4
      vertex 262.5 30 40.4
    endloop
  endfacet
  facet normal 1 -0 0
    outer loop
      vertex 262.5 3.8147e-07 70.4
      vertex 262.5 30 40.4
      vertex 262.5 4.8 70.4
    endloop
  endfacet
  facet normal 1 0 0
    outer loop
      vertex 262.5 30 40.4
      vertex 262.5 3.8147e-07 70.4
      vertex 262.5 0 70.4
    endloop
  endfacet
  facet normal -0 0.707107 0.707107
    outer loop
      vertex 342.8 30 47.1882
      vertex 347.6 4.8 72.3882
      vertex 347.6 30 47.1882
    endloop
  endfacet
  facet normal 0 0.707107 0.707107
    outer loop
      vertex 347.6 4.8 72.3882
      vertex 342.8 30 47.1882
      vertex 342.8 4.8 72.3882
    endloop
  endfacet
  facet normal 0 0 0
    outer loop
      vertex 342.8 4.8 72.3882
      vertex 342.8 30 47.1882
      vertex 342.8 33.3941 43.7941
    endloop
  endfacet
  facet normal -0 0 1
    outer loop
      vertex 342.8 3.8147e-07 70.4
      vertex 347.6 0 70.4
      vertex 347.6 3.8147e-07 70.4
    endloop
  endfacet
  facet normal 0 0 1
    outer loop
      vertex 347.6 0 70.4
      vertex 342.8 3.8147e-07 70.4
      vertex 342.8 0 70.4
    endloop
  endfacet
  facet normal -1 0 0
    outer loop
      vertex 342.8 30 40.4
      vertex 342.8 3.8147e-07 70.4
      vertex 342.8 4.8 70.4
    endloop
  endfacet
  facet normal -1 -0 -0
    outer loop
      vertex 342.8 3.8147e-07 70.4
      vertex 342.8 30 40.4
      vertex 342.8 0 70.4
    endloop
  endfacet
  facet normal -1 0 0
    outer loop
      vertex 342.8 4.8 70.4
      vertex 342.8 33.3941 43.7941
      vertex 342.8 30 40.4
    endloop
  endfacet
  facet normal -1 0 0
    outer loop
      vertex 342.8 33.3941 43.7941
      vertex 342.8 4.8 70.4
      vertex 342.8 4.8 72.3882
    endloop
  endfacet
  facet normal 0 -0.707107 -0.707107
    outer loop
      vertex 342.8 30 40.4
      vertex 347.6 0 70.4
      vertex 342.8 0 70.4
    endloop
  endfacet
  facet normal 0 -0.707107 -0.707107
    outer loop
      vertex 347.6 0 70.4
      vertex 342.8 30 40.4
      vertex 347.6 30 40.4
    endloop
  endfacet
  facet normal 1 -0 0
    outer loop
      vertex 347.6 4.8 70.4
      vertex 347.6 30 47.1882
      vertex 347.6 4.8 72.3882
    endloop
  endfacet
  facet normal 1 0 0
    outer loop
      vertex 347.6 30 47.1882
      vertex 347.6 4.8 70.4
      vertex 347.6 30 40.4
    endloop
  endfacet
  facet normal 1 -0 0
    outer loop
      vertex 347.6 3.8147e-07 70.4
      vertex 347.6 30 40.4
      vertex 347.6 4.8 70.4
    endloop
  endfacet
  facet normal 1 0 0
    outer loop
      vertex 347.6 30 40.4
      vertex 347.6 3.8147e-07 70.4
      vertex 347.6 0 70.4
    endloop
  endfacet
endsolid OpenSCAD_Model
